<?xml version="1.0" encoding="utf-8"?>
<!-- Generator: Adobe Illustrator 25.2.3, SVG Export Plug-In . SVG Version: 6.00 Build 0)  -->
<svg version="1.1" id="Layer_3" xmlns="http://www.w3.org/2000/svg" xmlns:xlink="http://www.w3.org/1999/xlink" x="0px" y="0px"
	 viewBox="0 0 766.6 156.4" style="enable-background:new 0 0 766.6 156.4;" xml:space="preserve">
<style type="text/css">
	.st0{fill:#FFFFFF;}
</style>
<g>
	<polygon class="st0" points="190.2,0 192.9,4.9 197.8,7.5 192.9,10.2 190.2,15.1 187.6,10.2 182.7,7.5 187.6,4.9 	"/>
	<polygon class="st0" points="168.1,7.5 171.7,14 178.2,17.6 171.7,21.1 168.1,27.6 164.6,21.1 158.1,17.6 164.6,14 	"/>
	<polygon class="st0" points="226.8,32.3 230.7,39.4 237.8,43.3 230.7,47.2 226.8,54.3 222.9,47.2 215.8,43.3 222.9,39.4 	"/>
	<rect y="141.8" class="st0" width="251.4" height="14.6"/>
	<g>
		<path class="st0" d="M116,37.1C80,48,53.1,89,53.1,137.9h28.3c0-28.5,5.4-55.3,15.3-75.5C102.2,51.1,108.8,42.5,116,37.1z"/>
		<path class="st0" d="M109.6,35.1C60.7,46,24.2,87.9,24.2,137.9h24.9C49.1,89.6,74.6,48.7,109.6,35.1z"/>
		<path class="st0" d="M134.9,28.3V13.9c-71.2,0-129.1,55.6-129.1,124h14.4C20.2,77.5,71.7,28.3,134.9,28.3z"/>
		<path class="st0" d="M153.8,37.1c7.2,5.4,13.8,13.9,19.3,25.2c9.9,20.2,15.3,47,15.3,75.5h28.3C216.7,89,189.8,48,153.8,37.1z"/>
		<path class="st0" d="M134.9,34.3c-27.3,0-49.5,46.5-49.5,103.6h99C184.4,80.8,162.2,34.3,134.9,34.3z M157,83.4
			c7.3,15.3-4.7,29-4.7,29c5.4,1.1,3.1,7.1,3.1,7.1c-0.2-1.1-1.1-1.6-1.1-1.6c-2-1.4-6.2-0.5-6.2-0.5c-6.1,1.6-8.7,2-8.7,2
			c-13.3,1.7-20.8-6-20.8-6c-14-14.6-5.9-29.7-5.9-29.7c0,0.7,0.2,2.5,0.2,2.5c1-5,3.2-8.2,3.2-8.2c0.1,1,0.2,2.9,0.2,2.9
			c2.2-5.3,4.2-7,4.2-7c-0.1,0.5-0.1,3.3-0.1,3.3c2.4-4.6,4.5-6,4.5-6c0,0.8-0.5,3.2-0.5,3.2c3.7-4.6,7.2-5.1,7.2-5.1
			c-10,10.4-9.4,23.5-9.4,23.5c0.3,13.5,10.5,20.2,10.5,20.2l-1.4,0.9c0.8,0.3,4.9,1.2,4.9,1.2c-0.1,0.2-0.6,1.4-0.6,1.4
			c0.9,0.2,5,0.6,5,0.6c-0.1,0.3-0.3,1-0.3,1c0.7,0,7.6-1.7,7.6-1.7c5-1.1,7,0.6,7,0.6c0.4-3.5-3.6-3.8-3.6-3.8
			c0.3-0.5,0.1-0.9,0.1-0.9c-0.9-2.1-10.6-2.2-10.6-2.2c7.6-8.5,6.7-19.5,6.7-19.5c0.2-10.5-9.5-21.3-9.5-21.3c3.1,1,7,5,7,5
			c-0.3-1.4-0.5-3.2-0.5-3.2c1.6,1.2,4.6,5.7,4.6,5.7c-0.1-0.7-0.1-2.9-0.1-2.9c1.4,1.1,4.3,6.8,4.3,6.8c0-0.6,0.2-3,0.2-3
			c1.4,1.6,3.4,8.2,3.4,8.2C156.8,85.1,157,83.4,157,83.4z M148.1,112.4c0,0,2.6-0.2,2.1,0.7l-0.4,0.7
			C149.9,113.7,150,113.2,148.1,112.4z"/>
		<path class="st0" d="M160.2,35.1c35,13.6,60.5,54.5,60.5,102.8h24.9C245.6,87.9,209.1,46,160.2,35.1z"/>
	</g>
	<g>
		<path class="st0" d="M288.9,78.7v5.4h-16v10.7h13.5v5.4h-13.5v14.7h-6.8V78.7H288.9z"/>
		<path class="st0" d="M310.7,109.9c1.5,0,2.8-0.1,4-0.4c1.1-0.3,2.2-0.7,3.2-1.1v-6.6h-4.5c-0.4,0-0.8-0.1-1-0.4
			c-0.2-0.2-0.4-0.5-0.4-0.9v-3.8h12v14.6c-0.9,0.7-1.9,1.2-2.9,1.7s-2,0.9-3.2,1.2s-2.3,0.6-3.6,0.7s-2.7,0.2-4.2,0.2
			c-2.6,0-5.1-0.5-7.3-1.4c-2.2-0.9-4.1-2.2-5.8-3.8c-1.6-1.6-2.9-3.6-3.8-5.9s-1.4-4.7-1.4-7.4c0-2.7,0.4-5.2,1.3-7.5
			s2.1-4.2,3.8-5.9c1.6-1.6,3.6-2.9,5.9-3.8s4.9-1.3,7.8-1.3c3,0,5.5,0.4,7.7,1.3s4,2,5.5,3.4l-2,3c-0.4,0.6-0.9,0.9-1.5,0.9
			c-0.4,0-0.8-0.1-1.2-0.4c-0.5-0.3-1.1-0.6-1.6-1c-0.6-0.3-1.2-0.6-1.8-0.8c-0.7-0.2-1.4-0.4-2.3-0.6c-0.8-0.2-1.8-0.2-2.9-0.2
			c-1.8,0-3.4,0.3-4.8,0.9s-2.7,1.5-3.7,2.6s-1.8,2.5-2.3,4c-0.5,1.6-0.8,3.3-0.8,5.2c0,2.1,0.3,3.9,0.9,5.6s1.4,3,2.5,4.1
			c1,1.1,2.3,2,3.8,2.6C307.4,109.6,309,109.9,310.7,109.9z"/>
		<path class="st0" d="M355.1,106.4c0.4,0,0.7,0.1,1,0.4l2.6,2.9c-1.5,1.8-3.3,3.2-5.4,4.2s-4.7,1.5-7.7,1.5c-2.7,0-5.1-0.5-7.2-1.4
			s-4-2.2-5.5-3.8s-2.7-3.6-3.5-5.9s-1.2-4.7-1.2-7.4c0-2.7,0.5-5.2,1.4-7.5s2.2-4.2,3.8-5.8c1.6-1.6,3.6-2.9,5.9-3.8
			s4.8-1.4,7.5-1.4s5,0.4,7,1.3s3.7,2,5.2,3.4l-2.2,3.1c-0.1,0.2-0.3,0.4-0.5,0.5c-0.2,0.2-0.5,0.2-0.9,0.2s-0.8-0.2-1.2-0.5
			s-0.9-0.6-1.5-1c-0.6-0.3-1.4-0.7-2.3-1s-2.1-0.5-3.6-0.5c-1.7,0-3.3,0.3-4.7,0.9s-2.6,1.4-3.7,2.5c-1,1.1-1.8,2.4-2.4,4
			s-0.9,3.3-0.9,5.3s0.3,3.8,0.9,5.4s1.4,2.9,2.3,4c1,1.1,2.1,1.9,3.5,2.5c1.3,0.6,2.8,0.9,4.3,0.9c0.9,0,1.7,0,2.5-0.2
			c0.7-0.1,1.4-0.3,2-0.5s1.2-0.5,1.8-0.8c0.6-0.3,1.1-0.8,1.7-1.3c0.2-0.1,0.3-0.3,0.5-0.4C354.7,106.4,354.9,106.4,355.1,106.4z"
			/>
		<path class="st0" d="M378.4,109.5c1.3,0,2.5-0.2,3.5-0.7c1-0.4,1.9-1,2.6-1.8s1.2-1.7,1.6-2.8c0.4-1.1,0.6-2.4,0.6-3.8V78.7h6.7
			v21.7c0,2.2-0.3,4.1-1,6c-0.7,1.8-1.7,3.4-3,4.7s-2.9,2.4-4.7,3.1c-1.9,0.7-3.9,1.1-6.2,1.1c-2.3,0-4.4-0.4-6.2-1.1
			c-1.9-0.7-3.4-1.8-4.7-3.1s-2.3-2.9-3-4.7c-0.7-1.8-1-3.8-1-6V78.7h6.7v21.6c0,1.4,0.2,2.6,0.6,3.8c0.4,1.1,0.9,2.1,1.6,2.9
			s1.6,1.4,2.6,1.8C375.9,109.2,377.1,109.5,378.4,109.5z"/>
		<path class="st0" d="M429.2,85.3c-0.2,0.4-0.4,0.6-0.6,0.8c-0.2,0.1-0.5,0.2-0.9,0.2c-0.3,0-0.7-0.1-1.1-0.4s-0.9-0.5-1.5-0.9
			c-0.6-0.3-1.2-0.6-2-0.9s-1.7-0.4-2.7-0.4c-0.9,0-1.7,0.1-2.4,0.3c-0.7,0.2-1.3,0.5-1.8,0.9s-0.8,0.9-1.1,1.4s-0.3,1.2-0.3,1.8
			c0,0.9,0.2,1.6,0.7,2.1c0.5,0.6,1.1,1.1,1.9,1.5s1.7,0.8,2.7,1.1s2,0.7,3.1,1s2.1,0.8,3.1,1.2c1,0.5,1.9,1.1,2.7,1.8
			s1.4,1.6,1.9,2.7s0.7,2.3,0.7,3.8c0,1.6-0.3,3.2-0.8,4.6s-1.4,2.7-2.5,3.7c-1.1,1.1-2.4,1.9-3.9,2.5s-3.3,0.9-5.3,0.9
			c-1.2,0-2.3-0.1-3.4-0.3c-1.1-0.2-2.2-0.5-3.2-1c-1-0.4-2-0.9-2.9-1.5s-1.7-1.2-2.4-1.9l1.9-3.2c0.2-0.2,0.4-0.4,0.7-0.6
			c0.3-0.2,0.5-0.2,0.9-0.2s0.9,0.2,1.3,0.5c0.5,0.3,1.1,0.7,1.7,1.1c0.7,0.4,1.4,0.8,2.3,1.1s2,0.5,3.2,0.5c1.9,0,3.4-0.5,4.5-1.4
			c1-0.9,1.6-2.2,1.6-3.9c0-1-0.2-1.7-0.7-2.3c-0.5-0.6-1.1-1.1-1.9-1.5s-1.7-0.8-2.7-1s-2-0.6-3-0.9s-2-0.7-3-1.2s-1.9-1.1-2.7-1.8
			c-0.8-0.8-1.4-1.7-1.9-2.8s-0.7-2.5-0.7-4.2c0-1.3,0.3-2.6,0.8-3.9c0.5-1.2,1.3-2.4,2.3-3.3c1-1,2.2-1.7,3.7-2.3
			c1.5-0.6,3.1-0.9,5-0.9c2.1,0,4.1,0.3,5.9,1s3.3,1.6,4.6,2.8L429.2,85.3z"/>
		<path class="st0" d="M444.8,115.3c-2.2,0-3.9-0.6-5.1-1.9s-1.8-3-1.8-5.2V93.9h-2.6c-0.3,0-0.6-0.1-0.9-0.3
			c-0.2-0.2-0.4-0.5-0.4-1v-2.5l4.1-0.7l1.3-7c0.1-0.3,0.2-0.6,0.5-0.8s0.5-0.3,0.9-0.3h3.2v8.1h6.8v4.4H444v13.9
			c0,0.8,0.2,1.4,0.6,1.9s0.9,0.7,1.6,0.7c0.4,0,0.7,0,1-0.1s0.5-0.2,0.7-0.3s0.4-0.2,0.5-0.3c0.1-0.1,0.3-0.1,0.5-0.1
			s0.3,0,0.4,0.1s0.2,0.2,0.4,0.4l1.9,3c-0.9,0.8-1.9,1.3-3.1,1.7C447.2,115.1,446,115.3,444.8,115.3z"/>
		<path class="st0" d="M466.3,88.8c1.6,0,3.1,0.3,4.5,0.8s2.5,1.3,3.5,2.3s1.8,2.2,2.3,3.7s0.8,3.1,0.8,4.9c0,0.5,0,0.9-0.1,1.2
			c0,0.3-0.1,0.5-0.2,0.7s-0.3,0.3-0.4,0.4c-0.2,0.1-0.4,0.1-0.7,0.1h-15.9c0.2,2.6,0.9,4.6,2.1,5.8s2.9,1.8,4.9,1.8
			c1,0,1.9-0.1,2.6-0.3c0.7-0.2,1.4-0.5,1.9-0.8s1-0.5,1.4-0.8s0.8-0.4,1.2-0.4c0.2,0,0.5,0.1,0.7,0.2s0.3,0.2,0.5,0.4l1.8,2.2
			c-0.7,0.8-1.5,1.5-2.3,2s-1.7,1-2.7,1.3s-1.9,0.6-2.8,0.7s-1.9,0.2-2.8,0.2c-1.8,0-3.4-0.3-5-0.9c-1.5-0.6-2.9-1.5-4-2.6
			c-1.1-1.2-2-2.6-2.7-4.3c-0.6-1.7-1-3.7-1-5.9c0-1.8,0.3-3.4,0.8-4.9c0.6-1.5,1.4-2.9,2.4-4c1.1-1.1,2.4-2,3.9-2.7
			C462.6,89.2,464.4,88.8,466.3,88.8z M466.4,93.3c-1.8,0-3.2,0.5-4.2,1.5s-1.7,2.5-2,4.3h11.6c0-0.8-0.1-1.6-0.3-2.3
			c-0.2-0.7-0.5-1.3-1-1.9c-0.5-0.5-1-1-1.7-1.3S467.3,93.3,466.4,93.3z"/>
		<path class="st0" d="M489,77.7v37.2h-6.2V77.7H489z"/>
		<path class="st0" d="M502.5,77.7v37.2h-6.2V77.7H502.5z"/>
		<path class="st0" d="M529.6,114.9h-2.8c-0.6,0-1-0.1-1.4-0.3c-0.3-0.2-0.6-0.5-0.8-1.1l-0.5-1.8c-0.7,0.6-1.3,1.1-1.9,1.5
			s-1.3,0.8-1.9,1.1c-0.7,0.3-1.4,0.5-2.1,0.7c-0.8,0.2-1.6,0.2-2.5,0.2c-1.1,0-2.1-0.1-3-0.4c-0.9-0.3-1.7-0.7-2.4-1.3
			s-1.2-1.3-1.5-2.2c-0.4-0.9-0.5-1.9-0.5-3c0-1,0.3-1.9,0.8-2.9c0.5-0.9,1.4-1.8,2.5-2.6c1.2-0.8,2.8-1.4,4.7-1.9
			c2-0.5,4.4-0.8,7.3-0.8v-1.5c0-1.7-0.4-3-1.1-3.8c-0.7-0.8-1.8-1.2-3.2-1.2c-1,0-1.8,0.1-2.5,0.3c-0.7,0.2-1.2,0.5-1.7,0.8
			s-0.9,0.6-1.4,0.8c-0.4,0.2-0.9,0.4-1.4,0.4c-0.4,0-0.8-0.1-1.1-0.3s-0.5-0.5-0.7-0.8l-1.1-2c3-2.7,6.5-4,10.7-4
			c1.5,0,2.8,0.2,4,0.7s2.2,1.2,3,2c0.8,0.9,1.4,1.9,1.9,3.1c0.4,1.2,0.6,2.5,0.6,4L529.6,114.9L529.6,114.9z M517.6,111
			c0.6,0,1.2-0.1,1.8-0.2c0.5-0.1,1-0.3,1.5-0.5s0.9-0.5,1.4-0.8c0.4-0.3,0.9-0.7,1.3-1.2V104c-1.8,0-3.3,0.1-4.5,0.3
			s-2.2,0.5-2.9,0.9s-1.3,0.8-1.6,1.2c-0.3,0.5-0.5,1-0.5,1.5c0,1.1,0.3,1.9,1,2.3C515.7,110.8,516.6,111,517.6,111z"/>
		<path class="st0" d="M535.7,114.9V89.2h3.6c0.6,0,1.1,0.1,1.3,0.4s0.4,0.6,0.5,1.2l0.4,3.1c0.9-1.6,2-2.8,3.2-3.8
			c1.2-0.9,2.6-1.4,4.2-1.4c1.3,0,2.3,0.3,3.2,0.9l-0.8,4.6c0,0.3-0.2,0.5-0.3,0.6c-0.2,0.1-0.4,0.2-0.7,0.2c-0.2,0-0.6-0.1-1-0.2
			s-1-0.2-1.7-0.2c-1.3,0-2.4,0.4-3.3,1.1c-0.9,0.7-1.7,1.7-2.3,3.1v16h-6.3V114.9z"/>
		<path class="st0" d="M573.1,100.8v14.1h-6.7V78.7h11c2.5,0,4.6,0.3,6.3,0.8c1.8,0.5,3.2,1.2,4.3,2.1s2,2,2.5,3.3s0.8,2.7,0.8,4.2
			c0,1.2-0.2,2.4-0.5,3.5s-0.9,2.1-1.5,3c-0.7,0.9-1.5,1.7-2.5,2.3c-1,0.7-2.1,1.2-3.4,1.6c0.9,0.5,1.6,1.2,2.2,2.1l9,13.3h-6
			c-0.6,0-1.1-0.1-1.5-0.3s-0.8-0.6-1-1l-7.6-11.6c-0.3-0.4-0.6-0.7-0.9-0.9s-0.8-0.3-1.5-0.3C576.1,100.8,573.1,100.8,573.1,100.8z
			 M573.1,95.9h4.2c1.3,0,2.4-0.2,3.3-0.5s1.7-0.8,2.3-1.3s1.1-1.2,1.4-2s0.5-1.6,0.5-2.5c0-1.8-0.6-3.2-1.8-4.2s-3.1-1.5-5.5-1.5
			h-4.3v12H573.1z"/>
		<path class="st0" d="M609.1,88.8c1.6,0,3.1,0.3,4.5,0.8s2.5,1.3,3.5,2.3s1.8,2.2,2.3,3.7s0.8,3.1,0.8,4.9c0,0.5,0,0.9-0.1,1.2
			c0,0.3-0.1,0.5-0.2,0.7c-0.1,0.2-0.3,0.3-0.4,0.4c-0.2,0.1-0.4,0.1-0.7,0.1h-15.9c0.2,2.6,0.9,4.6,2.1,5.8s2.9,1.8,4.9,1.8
			c1,0,1.9-0.1,2.6-0.3c0.7-0.2,1.4-0.5,1.9-0.8s1-0.5,1.4-0.8s0.8-0.4,1.2-0.4c0.2,0,0.5,0.1,0.7,0.2s0.3,0.2,0.5,0.4l1.8,2.2
			c-0.7,0.8-1.5,1.5-2.3,2s-1.7,1-2.7,1.3s-1.9,0.6-2.8,0.7s-1.9,0.2-2.8,0.2c-1.8,0-3.4-0.3-5-0.9c-1.5-0.6-2.9-1.5-4-2.6
			c-1.1-1.2-2-2.6-2.7-4.3c-0.6-1.7-1-3.7-1-5.9c0-1.8,0.3-3.4,0.8-4.9c0.6-1.5,1.4-2.9,2.4-4c1.1-1.1,2.4-2,3.9-2.7
			C605.5,89.2,607.2,88.8,609.1,88.8z M609.2,93.3c-1.8,0-3.2,0.5-4.2,1.5s-1.7,2.5-2,4.3h11.6c0-0.8-0.1-1.6-0.3-2.3
			c-0.2-0.7-0.5-1.3-1-1.9c-0.5-0.5-1-1-1.7-1.3S610.1,93.3,609.2,93.3z"/>
		<path class="st0" d="M640.5,94.2c-0.2,0.3-0.3,0.5-0.5,0.6s-0.4,0.2-0.7,0.2s-0.6-0.1-1-0.2c-0.3-0.2-0.7-0.4-1.2-0.6
			s-1-0.4-1.5-0.6s-1.3-0.2-2-0.2c-1.2,0-2.2,0.3-2.9,0.8s-1,1.2-1,2c0,0.5,0.2,1,0.5,1.4s0.8,0.7,1.4,1s1.3,0.5,2,0.8
			c0.8,0.2,1.5,0.5,2.3,0.7s1.5,0.6,2.3,0.9s1.4,0.8,2,1.3s1.1,1.2,1.4,1.9c0.4,0.7,0.5,1.6,0.5,2.7c0,1.2-0.2,2.4-0.7,3.4
			s-1.1,1.9-2,2.7c-0.9,0.8-1.9,1.4-3.2,1.8s-2.7,0.6-4.4,0.6c-0.9,0-1.7-0.1-2.6-0.2s-1.6-0.4-2.4-0.7s-1.5-0.6-2.2-1
			s-1.2-0.8-1.7-1.2l1.4-2.3c0.2-0.3,0.4-0.5,0.7-0.7s0.6-0.2,1-0.2s0.7,0.1,1.1,0.3c0.3,0.2,0.7,0.5,1.2,0.7s1,0.5,1.6,0.7
			s1.4,0.3,2.3,0.3c0.7,0,1.4-0.1,1.9-0.3c0.5-0.2,1-0.4,1.3-0.7s0.6-0.6,0.8-1s0.2-0.8,0.2-1.2c0-0.6-0.2-1.1-0.5-1.5
			c-0.4-0.4-0.8-0.7-1.4-1c-0.6-0.3-1.3-0.5-2-0.8c-0.8-0.2-1.5-0.5-2.3-0.7s-1.6-0.6-2.3-0.9c-0.8-0.4-1.4-0.8-2-1.4
			c-0.6-0.5-1.1-1.2-1.4-2c-0.4-0.8-0.5-1.8-0.5-2.9s0.2-2.1,0.6-3c0.4-1,1-1.8,1.8-2.5s1.8-1.3,3-1.7c1.2-0.4,2.6-0.6,4.2-0.6
			c1.8,0,3.4,0.3,4.8,0.9s2.7,1.3,3.6,2.3L640.5,94.2z"/>
		<path class="st0" d="M657.7,88.8c1.6,0,3.1,0.3,4.5,0.8s2.5,1.3,3.5,2.3s1.8,2.2,2.3,3.7s0.8,3.1,0.8,4.9c0,0.5,0,0.9-0.1,1.2
			c0,0.3-0.1,0.5-0.2,0.7c-0.1,0.2-0.3,0.3-0.4,0.4c-0.2,0.1-0.4,0.1-0.7,0.1h-15.9c0.2,2.6,0.9,4.6,2.1,5.8s2.9,1.8,4.9,1.8
			c1,0,1.9-0.1,2.6-0.3c0.7-0.2,1.4-0.5,1.9-0.8s1-0.5,1.4-0.8s0.8-0.4,1.2-0.4c0.2,0,0.5,0.1,0.7,0.2s0.3,0.2,0.5,0.4l1.8,2.2
			c-0.7,0.8-1.5,1.5-2.3,2s-1.7,1-2.7,1.3s-1.9,0.6-2.8,0.7s-1.9,0.2-2.8,0.2c-1.8,0-3.4-0.3-5-0.9c-1.5-0.6-2.9-1.5-4-2.6
			c-1.1-1.2-2-2.6-2.7-4.3c-0.6-1.7-1-3.7-1-5.9c0-1.8,0.3-3.4,0.8-4.9c0.6-1.5,1.4-2.9,2.4-4c1.1-1.1,2.4-2,3.9-2.7
			C654,89.2,655.8,88.8,657.7,88.8z M657.8,93.3c-1.8,0-3.2,0.5-4.2,1.5s-1.7,2.5-2,4.3h11.6c0-0.8-0.1-1.6-0.3-2.3
			c-0.2-0.7-0.5-1.3-1-1.9c-0.5-0.5-1-1-1.7-1.3S658.7,93.3,657.8,93.3z"/>
		<path class="st0" d="M693.9,114.9h-2.8c-0.6,0-1-0.1-1.4-0.3c-0.3-0.2-0.6-0.5-0.8-1.1l-0.5-1.8c-0.7,0.6-1.3,1.1-1.9,1.5
			s-1.3,0.8-1.9,1.1c-0.7,0.3-1.4,0.5-2.1,0.7c-0.8,0.2-1.6,0.2-2.5,0.2c-1.1,0-2.1-0.1-3-0.4s-1.7-0.7-2.4-1.3s-1.2-1.3-1.5-2.2
			c-0.4-0.9-0.5-1.9-0.5-3c0-1,0.3-1.9,0.8-2.9c0.5-0.9,1.4-1.8,2.5-2.6c1.2-0.8,2.8-1.4,4.7-1.9c2-0.5,4.4-0.8,7.3-0.8v-1.5
			c0-1.7-0.4-3-1.1-3.8c-0.7-0.8-1.8-1.2-3.2-1.2c-1,0-1.8,0.1-2.5,0.3c-0.7,0.2-1.2,0.5-1.7,0.8s-0.9,0.6-1.4,0.8
			c-0.4,0.2-0.9,0.4-1.4,0.4c-0.4,0-0.8-0.1-1.1-0.3s-0.5-0.5-0.7-0.8l-1.1-2c3-2.7,6.5-4,10.7-4c1.5,0,2.8,0.2,4,0.7s2.2,1.2,3,2
			c0.8,0.9,1.4,1.9,1.9,3.1c0.4,1.2,0.6,2.5,0.6,4L693.9,114.9L693.9,114.9z M681.9,111c0.6,0,1.2-0.1,1.8-0.2
			c0.5-0.1,1-0.3,1.5-0.5s0.9-0.5,1.4-0.8c0.4-0.3,0.9-0.7,1.3-1.2V104c-1.8,0-3.3,0.1-4.5,0.3s-2.2,0.5-2.9,0.9s-1.3,0.8-1.6,1.2
			c-0.3,0.5-0.5,1-0.5,1.5c0,1.1,0.3,1.9,1,2.3C680,110.8,680.9,111,681.9,111z"/>
		<path class="st0" d="M700,114.9V89.2h3.6c0.6,0,1.1,0.1,1.3,0.4s0.4,0.6,0.5,1.2l0.4,3.1c0.9-1.6,2-2.8,3.2-3.8
			c1.2-0.9,2.6-1.4,4.2-1.4c1.3,0,2.3,0.3,3.2,0.9l-0.8,4.6c0,0.3-0.2,0.5-0.3,0.6c-0.2,0.1-0.4,0.2-0.7,0.2c-0.2,0-0.6-0.1-1-0.2
			s-1-0.2-1.7-0.2c-1.3,0-2.4,0.4-3.3,1.1c-0.9,0.7-1.7,1.7-2.3,3.1v16H700V114.9z"/>
		<path class="st0" d="M738.4,94.7c-0.2,0.2-0.4,0.4-0.5,0.5c-0.2,0.1-0.4,0.2-0.8,0.2c-0.3,0-0.6-0.1-0.9-0.3
			c-0.3-0.2-0.7-0.4-1.1-0.6c-0.4-0.2-0.9-0.5-1.5-0.7s-1.3-0.3-2.1-0.3c-1.1,0-2,0.2-2.9,0.6s-1.5,1-2,1.7s-0.9,1.6-1.2,2.7
			c-0.3,1-0.4,2.2-0.4,3.5c0,1.4,0.1,2.6,0.4,3.7c0.3,1.1,0.7,2,1.3,2.7s1.2,1.3,2,1.6s1.7,0.6,2.7,0.6s1.8-0.1,2.4-0.4
			c0.6-0.2,1.1-0.5,1.5-0.8s0.8-0.6,1.1-0.8c0.3-0.2,0.7-0.4,1-0.4c0.5,0,0.9,0.2,1.1,0.6l1.8,2.2c-0.7,0.8-1.4,1.5-2.2,2
			s-1.6,1-2.5,1.3s-1.7,0.6-2.7,0.7c-0.9,0.1-1.8,0.2-2.7,0.2c-1.6,0-3.1-0.3-4.5-0.9s-2.6-1.5-3.7-2.6c-1-1.1-1.9-2.5-2.5-4.2
			s-0.9-3.5-0.9-5.6c0-1.9,0.3-3.6,0.8-5.2s1.3-3,2.4-4.2c1-1.2,2.3-2.1,3.9-2.8s3.3-1,5.4-1c1.9,0,3.6,0.3,5,0.9s2.7,1.5,3.9,2.7
			L738.4,94.7z"/>
		<path class="st0" d="M744.2,114.9V77.7h6.2V92c1-1,2.1-1.7,3.3-2.3c1.2-0.6,2.6-0.9,4.2-0.9c1.4,0,2.6,0.2,3.7,0.7
			c1.1,0.5,2,1.1,2.7,2s1.3,1.9,1.7,3.1s0.6,2.5,0.6,3.9v16.3h-6.2V98.6c0-1.6-0.4-2.8-1.1-3.6c-0.7-0.9-1.8-1.3-3.3-1.3
			c-1.1,0-2.1,0.2-3,0.7s-1.8,1.1-2.7,2v18.5C750.3,114.9,744.2,114.9,744.2,114.9z"/>
	</g>
</g>
</svg>
