<?xml version="1.0" encoding="utf-8"?>
<!-- Generator: Adobe Illustrator 25.2.3, SVG Export Plug-In . SVG Version: 6.00 Build 0)  -->
<svg version="1.1" id="Logo" xmlns="http://www.w3.org/2000/svg" xmlns:xlink="http://www.w3.org/1999/xlink" x="0px" y="0px"
	 viewBox="0 0 772.5 156.5" style="enable-background:new 0 0 772.5 156.5;" xml:space="preserve">
<style type="text/css">
	.st0{fill:#004785;}
	.st1{fill:#00794C;}
	.st2{fill:none;}
	.st3{enable-background:new    ;}
</style>
<g id="Observatory">
	<path class="st0" d="M111.6,35.8c0,0-32,16.9-32,102.1H52.2C52.2,137.9,49.1,54.6,111.6,35.8z"/>
	<path class="st0" d="M94.3,38.8c0,0-48,22.8-47.5,99.1h-23C23.8,137.9,23.8,58,94.3,38.8z"/>
	<path class="st0" d="M134.2,32.3c-50.7,0-49.4,105.6-49.4,105.6H183C183,137.9,185.4,32.3,134.2,32.3z M154.4,119.6
		c-0.2-1.1-1.1-1.6-1.1-1.6c-2-1.4-6.2-0.5-6.2-0.5c-6.1,1.6-8.7,2-8.7,2c-13.3,1.7-20.8-6-20.8-6c-14-14.6-5.9-29.7-5.9-29.7
		c0,0.7,0.2,2.5,0.2,2.5c1-5,3.2-8.2,3.2-8.2c0.1,1,0.2,2.9,0.2,2.9c2.2-5.3,4.2-7,4.2-7c-0.1,0.5-0.1,3.3-0.1,3.3
		c2.4-4.6,4.5-6,4.5-6c0,0.8-0.5,3.2-0.5,3.2c3.7-4.6,7.2-5.1,7.2-5.1c-10,10.4-9.4,23.5-9.4,23.5c0.3,13.5,10.5,20.2,10.5,20.2
		l-1.4,0.9c0.8,0.3,4.9,1.2,4.9,1.2c-0.1,0.2-0.6,1.4-0.6,1.4c0.9,0.2,5,0.6,5,0.6c-0.1,0.3-0.3,1-0.3,1c0.7,0,7.6-1.7,7.6-1.7
		c5-1.1,7,0.6,7,0.6c0.4-3.5-3.6-3.8-3.6-3.8c0.3-0.5,0.1-0.9,0.1-0.9c-0.9-2.1-10.6-2.2-10.6-2.2c7.6-8.5,6.7-19.5,6.7-19.5
		c0.2-10.5-9.5-21.3-9.5-21.3c3.1,1,7,5,7,5c-0.3-1.4-0.5-3.2-0.5-3.2c1.6,1.2,4.6,5.7,4.6,5.7C148,76.2,148,74,148,74
		c1.4,1.1,4.3,6.8,4.3,6.8c0-0.6,0.2-3,0.2-3c1.4,1.6,3.4,8.2,3.4,8.2c0-0.6,0.3-2.3,0.3-2.3c7.3,15.3-4.7,29-4.7,29
		C156.7,113.5,154.4,119.6,154.4,119.6z M147.1,112.4c0,0,2.6-0.2,2.1,0.7l-0.4,0.7C148.9,113.7,149,113.2,147.1,112.4z"/>
	<path class="st0" d="M19.2,137.9C21.2,63.7,68,28.6,133.9,28.6c0.1,0,0.1-11,0.1-11C52.2,19.2,8.8,60.9,6.7,137.9"/>
	<path class="st0" d="M188.6,137.9c-1-93.9-33.1-101.8-33.1-101.8s54.2,7.3,59.8,101.8H188.6z"/>
	<path class="st0" d="M172.1,38.8c0,0,43.3,14.6,48.6,99.1h23.9C244.6,137.9,245.1,59.1,172.1,38.8z"/>
	<polygon class="st1" points="190.5,0 193.2,4.9 198.1,7.5 193.2,10.2 190.5,15.1 187.9,10.2 183,7.5 187.9,4.9 	"/>
	<polygon class="st1" points="168.4,7.5 172,14 178.5,17.6 172,21.1 168.4,27.6 164.9,21.1 158.4,17.6 164.9,14 	"/>
	<polygon class="st1" points="227.1,32.3 231,39.4 238.1,43.3 231,47.2 227.1,54.3 223.2,47.2 216.1,43.3 223.2,39.4 	"/>
	<rect y="141.8" class="st1" width="251.4" height="14.6"/>
</g>
<rect x="259.2" y="77.7" class="st2" width="513.3" height="42"/>
<g class="st3">
	<path class="st0" d="M288.9,78.7v5.4h-16v10.7h13.5v5.4h-13.5v14.7h-6.8V78.7H288.9z"/>
	<path class="st0" d="M310.7,109.9c1.5,0,2.8-0.1,4-0.4c1.1-0.3,2.2-0.7,3.2-1.1v-6.6h-4.5c-0.4,0-0.8-0.1-1-0.4
		c-0.2-0.2-0.4-0.5-0.4-0.9v-3.8h12v14.6c-0.9,0.7-1.9,1.2-2.9,1.7c-1,0.5-2.1,0.9-3.2,1.2s-2.3,0.6-3.6,0.7
		c-1.3,0.2-2.7,0.2-4.1,0.2c-2.6,0-5.1-0.5-7.3-1.4c-2.2-0.9-4.1-2.2-5.8-3.8c-1.6-1.6-2.9-3.6-3.8-5.9c-0.9-2.3-1.4-4.7-1.4-7.4
		c0-2.7,0.4-5.2,1.3-7.5c0.9-2.3,2.1-4.2,3.8-5.9c1.6-1.6,3.6-2.9,5.9-3.8c2.3-0.9,4.9-1.3,7.8-1.3c2.9,0,5.5,0.4,7.7,1.3
		c2.2,0.9,4,2,5.5,3.4l-2,3c-0.4,0.6-0.9,0.9-1.5,0.9c-0.4,0-0.8-0.1-1.2-0.4c-0.5-0.3-1.1-0.6-1.6-1c-0.6-0.3-1.2-0.6-1.9-0.8
		c-0.7-0.2-1.4-0.4-2.3-0.6c-0.8-0.2-1.8-0.2-2.9-0.2c-1.8,0-3.4,0.3-4.8,0.9c-1.4,0.6-2.7,1.5-3.7,2.6c-1,1.1-1.8,2.5-2.4,4
		c-0.5,1.6-0.8,3.3-0.8,5.2c0,2.1,0.3,3.9,0.9,5.6s1.4,3,2.5,4.1c1,1.1,2.3,2,3.8,2.6C307.4,109.6,309,109.9,310.7,109.9z"/>
	<path class="st0" d="M355.1,106.4c0.4,0,0.7,0.1,1,0.4l2.6,2.9c-1.5,1.8-3.3,3.2-5.4,4.2s-4.7,1.5-7.7,1.5c-2.7,0-5.1-0.5-7.2-1.4
		c-2.1-0.9-4-2.2-5.5-3.8s-2.7-3.6-3.5-5.9c-0.8-2.3-1.2-4.7-1.2-7.4c0-2.7,0.5-5.2,1.4-7.5c0.9-2.3,2.2-4.2,3.8-5.8
		c1.6-1.6,3.6-2.9,5.9-3.8s4.8-1.4,7.5-1.4c2.7,0,5,0.4,7,1.3c2,0.9,3.7,2,5.2,3.4l-2.2,3.1c-0.1,0.2-0.3,0.4-0.5,0.5
		c-0.2,0.2-0.5,0.2-0.9,0.2c-0.4,0-0.8-0.2-1.2-0.5s-0.9-0.6-1.5-1c-0.6-0.3-1.4-0.7-2.3-1c-0.9-0.3-2.1-0.5-3.6-0.5
		c-1.7,0-3.3,0.3-4.7,0.9c-1.4,0.6-2.6,1.4-3.7,2.5c-1,1.1-1.8,2.4-2.4,4c-0.6,1.6-0.9,3.3-0.9,5.3c0,2,0.3,3.8,0.9,5.4
		c0.6,1.6,1.4,2.9,2.3,4c1,1.1,2.1,1.9,3.5,2.5c1.3,0.6,2.8,0.9,4.3,0.9c0.9,0,1.7,0,2.5-0.2c0.7-0.1,1.4-0.3,2-0.5s1.2-0.5,1.8-0.8
		c0.6-0.3,1.1-0.8,1.7-1.3c0.2-0.1,0.3-0.3,0.5-0.4C354.7,106.4,354.9,106.4,355.1,106.4z"/>
	<path class="st0" d="M378.4,109.5c1.3,0,2.5-0.2,3.5-0.7c1-0.4,1.9-1,2.6-1.8c0.7-0.8,1.2-1.7,1.6-2.8c0.4-1.1,0.6-2.4,0.6-3.8
		V78.7h6.7v21.7c0,2.2-0.3,4.1-1,6c-0.7,1.8-1.7,3.4-3,4.7s-2.9,2.4-4.7,3.1c-1.9,0.7-3.9,1.1-6.2,1.1c-2.3,0-4.4-0.4-6.2-1.1
		c-1.9-0.7-3.4-1.8-4.7-3.1s-2.3-2.9-3-4.7c-0.7-1.8-1-3.8-1-6V78.7h6.7v21.6c0,1.4,0.2,2.6,0.6,3.8c0.4,1.1,0.9,2.1,1.6,2.9
		c0.7,0.8,1.6,1.4,2.6,1.8C375.9,109.2,377.1,109.5,378.4,109.5z"/>
	<path class="st0" d="M429.2,85.3c-0.2,0.4-0.4,0.6-0.6,0.8c-0.2,0.1-0.5,0.2-0.9,0.2c-0.3,0-0.7-0.1-1.1-0.4
		c-0.4-0.3-0.9-0.5-1.5-0.9c-0.6-0.3-1.2-0.6-2-0.9c-0.8-0.3-1.7-0.4-2.7-0.4c-0.9,0-1.7,0.1-2.4,0.3c-0.7,0.2-1.3,0.5-1.8,0.9
		c-0.5,0.4-0.8,0.9-1.1,1.4s-0.3,1.2-0.3,1.8c0,0.9,0.2,1.6,0.7,2.1c0.5,0.6,1.1,1.1,1.9,1.5c0.8,0.4,1.7,0.8,2.7,1.1s2,0.7,3.1,1
		c1,0.4,2.1,0.8,3.1,1.2c1,0.5,1.9,1.1,2.7,1.8c0.8,0.7,1.4,1.6,1.9,2.7c0.5,1.1,0.7,2.3,0.7,3.8c0,1.6-0.3,3.2-0.8,4.6
		s-1.4,2.7-2.4,3.7c-1.1,1.1-2.4,1.9-3.9,2.5c-1.6,0.6-3.3,0.9-5.3,0.9c-1.2,0-2.3-0.1-3.4-0.3s-2.2-0.5-3.2-1c-1-0.4-2-0.9-2.9-1.5
		c-0.9-0.6-1.7-1.2-2.4-1.9l2-3.2c0.2-0.2,0.4-0.4,0.7-0.6c0.3-0.2,0.5-0.2,0.9-0.2c0.4,0,0.9,0.2,1.4,0.5c0.5,0.3,1.1,0.7,1.7,1.1
		c0.7,0.4,1.4,0.8,2.3,1.1s2,0.5,3.2,0.5c1.9,0,3.4-0.5,4.4-1.4c1.1-0.9,1.6-2.2,1.6-3.9c0-1-0.2-1.7-0.7-2.3
		c-0.5-0.6-1.1-1.1-1.9-1.5c-0.8-0.4-1.7-0.8-2.7-1s-2-0.6-3.1-0.9s-2-0.7-3-1.2s-1.9-1.1-2.7-1.8s-1.4-1.7-1.9-2.8
		c-0.5-1.1-0.7-2.5-0.7-4.2c0-1.3,0.3-2.6,0.8-3.9s1.3-2.4,2.3-3.3s2.2-1.7,3.7-2.3c1.5-0.6,3.1-0.9,5-0.9c2.1,0,4.1,0.3,5.9,1
		s3.3,1.6,4.6,2.8L429.2,85.3z"/>
	<path class="st0" d="M444.8,115.3c-2.2,0-3.9-0.6-5.1-1.9c-1.2-1.3-1.8-3-1.8-5.2V93.9h-2.6c-0.3,0-0.6-0.1-0.9-0.3
		c-0.2-0.2-0.4-0.5-0.4-1v-2.5l4.1-0.7l1.3-7c0.1-0.3,0.2-0.6,0.5-0.8c0.2-0.2,0.5-0.3,0.9-0.3h3.2v8.1h6.8v4.4H444v13.9
		c0,0.8,0.2,1.4,0.6,1.9s0.9,0.7,1.6,0.7c0.4,0,0.7,0,1-0.1c0.3-0.1,0.5-0.2,0.7-0.3s0.4-0.2,0.5-0.3s0.3-0.1,0.5-0.1
		c0.2,0,0.3,0,0.5,0.1c0.1,0.1,0.2,0.2,0.4,0.4l1.8,3c-0.9,0.8-1.9,1.3-3.1,1.7C447.2,115.1,446,115.3,444.8,115.3z"/>
	<path class="st0" d="M466.3,88.8c1.6,0,3.1,0.3,4.5,0.8c1.4,0.5,2.5,1.3,3.5,2.3c1,1,1.8,2.2,2.3,3.7c0.6,1.4,0.8,3.1,0.8,4.9
		c0,0.5,0,0.9-0.1,1.2c0,0.3-0.1,0.5-0.2,0.7c-0.1,0.2-0.3,0.3-0.4,0.4c-0.2,0.1-0.4,0.1-0.7,0.1h-15.8c0.2,2.6,0.9,4.6,2.1,5.8
		c1.2,1.2,2.9,1.8,4.9,1.8c1,0,1.9-0.1,2.6-0.3c0.7-0.2,1.4-0.5,1.9-0.8c0.5-0.3,1-0.5,1.4-0.8c0.4-0.2,0.8-0.4,1.2-0.4
		c0.2,0,0.5,0.1,0.6,0.2s0.3,0.2,0.5,0.4l1.8,2.2c-0.7,0.8-1.5,1.5-2.3,2c-0.9,0.5-1.7,1-2.7,1.3s-1.9,0.6-2.8,0.7
		c-1,0.1-1.9,0.2-2.8,0.2c-1.8,0-3.4-0.3-5-0.9c-1.5-0.6-2.9-1.5-4-2.6c-1.1-1.2-2-2.6-2.7-4.3c-0.6-1.7-1-3.7-1-5.9
		c0-1.8,0.3-3.4,0.8-4.9c0.6-1.5,1.4-2.9,2.4-4c1.1-1.1,2.4-2,3.9-2.7C462.6,89.2,464.4,88.8,466.3,88.8z M466.4,93.3
		c-1.8,0-3.2,0.5-4.2,1.5s-1.7,2.5-1.9,4.3h11.6c0-0.8-0.1-1.6-0.3-2.3c-0.2-0.7-0.5-1.3-1-1.9c-0.5-0.5-1-1-1.7-1.3
		S467.3,93.3,466.4,93.3z"/>
	<path class="st0" d="M489,77.7v37.2h-6.2V77.7H489z"/>
	<path class="st0" d="M502.5,77.7v37.2h-6.2V77.7H502.5z"/>
	<path class="st0" d="M529.6,114.9h-2.8c-0.6,0-1-0.1-1.4-0.3c-0.3-0.2-0.6-0.5-0.8-1.1l-0.5-1.8c-0.7,0.6-1.3,1.1-1.9,1.5
		s-1.3,0.8-1.9,1.1s-1.4,0.5-2.1,0.7c-0.8,0.2-1.6,0.2-2.5,0.2c-1.1,0-2.1-0.1-3-0.4c-0.9-0.3-1.7-0.7-2.4-1.3s-1.2-1.3-1.5-2.2
		c-0.4-0.9-0.6-1.9-0.6-3c0-1,0.3-1.9,0.8-2.9c0.5-0.9,1.4-1.8,2.5-2.6c1.2-0.8,2.8-1.4,4.7-1.9c2-0.5,4.4-0.8,7.3-0.8v-1.5
		c0-1.7-0.4-3-1.1-3.8c-0.7-0.8-1.8-1.2-3.2-1.2c-1,0-1.8,0.1-2.5,0.3c-0.7,0.2-1.2,0.5-1.7,0.8c-0.5,0.3-0.9,0.6-1.4,0.8
		c-0.4,0.2-0.9,0.4-1.4,0.4c-0.4,0-0.8-0.1-1.1-0.3c-0.3-0.2-0.5-0.5-0.7-0.8l-1.1-2c3-2.7,6.5-4,10.7-4c1.5,0,2.8,0.2,4,0.7
		c1.2,0.5,2.2,1.2,3,2s1.4,1.9,1.9,3.1c0.4,1.2,0.6,2.5,0.6,4V114.9z M517.6,111c0.6,0,1.2-0.1,1.8-0.2c0.5-0.1,1-0.3,1.5-0.5
		c0.5-0.2,0.9-0.5,1.4-0.8c0.4-0.3,0.9-0.7,1.3-1.2V104c-1.8,0-3.3,0.1-4.5,0.3c-1.2,0.2-2.2,0.5-2.9,0.9c-0.7,0.4-1.3,0.8-1.6,1.2
		c-0.3,0.5-0.5,1-0.5,1.5c0,1.1,0.3,1.9,1,2.3C515.7,110.8,516.6,111,517.6,111z"/>
	<path class="st0" d="M535.7,114.9V89.2h3.6c0.6,0,1.1,0.1,1.3,0.4s0.4,0.6,0.5,1.2l0.4,3.1c0.9-1.6,2-2.8,3.2-3.8
		c1.2-0.9,2.6-1.4,4.1-1.4c1.3,0,2.3,0.3,3.2,0.9l-0.8,4.6c-0.1,0.3-0.2,0.5-0.3,0.6c-0.2,0.1-0.4,0.2-0.7,0.2c-0.2,0-0.6-0.1-1-0.2
		c-0.4-0.1-1-0.2-1.7-0.2c-1.3,0-2.4,0.4-3.3,1.1c-0.9,0.7-1.7,1.7-2.3,3.1v16H535.7z"/>
	<path class="st0" d="M573.1,100.8v14.1h-6.7V78.7h11c2.5,0,4.6,0.3,6.3,0.8c1.8,0.5,3.2,1.2,4.3,2.1c1.1,0.9,2,2,2.5,3.3
		c0.5,1.3,0.8,2.7,0.8,4.2c0,1.2-0.2,2.4-0.5,3.5s-0.9,2.1-1.5,3c-0.7,0.9-1.5,1.7-2.5,2.3c-1,0.7-2.1,1.2-3.4,1.6
		c0.9,0.5,1.6,1.2,2.2,2.1l9,13.3h-6c-0.6,0-1.1-0.1-1.5-0.3s-0.8-0.6-1-1l-7.6-11.6c-0.3-0.4-0.6-0.7-0.9-0.9s-0.8-0.3-1.5-0.3
		H573.1z M573.1,95.9h4.2c1.3,0,2.4-0.2,3.3-0.5s1.7-0.8,2.3-1.3s1.1-1.2,1.4-2s0.5-1.6,0.5-2.5c0-1.8-0.6-3.2-1.8-4.2
		c-1.2-1-3.1-1.5-5.5-1.5h-4.3V95.9z"/>
	<path class="st0" d="M609.1,88.8c1.6,0,3.1,0.3,4.5,0.8c1.4,0.5,2.5,1.3,3.5,2.3c1,1,1.8,2.2,2.3,3.7s0.8,3.1,0.8,4.9
		c0,0.5,0,0.9-0.1,1.2c0,0.3-0.1,0.5-0.2,0.7c-0.1,0.2-0.3,0.3-0.4,0.4c-0.2,0.1-0.4,0.1-0.7,0.1h-15.9c0.2,2.6,0.9,4.6,2.1,5.8
		s2.9,1.8,4.9,1.8c1,0,1.9-0.1,2.6-0.3c0.7-0.2,1.4-0.5,1.9-0.8c0.5-0.3,1-0.5,1.4-0.8s0.8-0.4,1.2-0.4c0.2,0,0.5,0.1,0.7,0.2
		s0.3,0.2,0.5,0.4l1.8,2.2c-0.7,0.8-1.5,1.5-2.3,2c-0.8,0.5-1.7,1-2.7,1.3s-1.9,0.6-2.8,0.7s-1.9,0.2-2.8,0.2c-1.8,0-3.4-0.3-5-0.9
		c-1.5-0.6-2.9-1.5-4-2.6c-1.1-1.2-2-2.6-2.7-4.3c-0.6-1.7-1-3.7-1-5.9c0-1.8,0.3-3.4,0.8-4.9c0.6-1.5,1.4-2.9,2.4-4
		c1.1-1.1,2.4-2,3.9-2.7C605.5,89.2,607.2,88.8,609.1,88.8z M609.2,93.3c-1.8,0-3.2,0.5-4.2,1.5s-1.7,2.5-2,4.3h11.6
		c0-0.8-0.1-1.6-0.3-2.3c-0.2-0.7-0.5-1.3-1-1.9c-0.5-0.5-1-1-1.7-1.3S610.1,93.3,609.2,93.3z"/>
	<path class="st0" d="M640.5,94.2c-0.2,0.3-0.3,0.5-0.5,0.6c-0.2,0.1-0.4,0.2-0.7,0.2c-0.3,0-0.6-0.1-1-0.2
		c-0.3-0.2-0.7-0.4-1.2-0.6c-0.5-0.2-1-0.4-1.5-0.6s-1.3-0.2-2-0.2c-1.2,0-2.2,0.3-2.9,0.8c-0.7,0.5-1,1.2-1,2c0,0.5,0.2,1,0.5,1.4
		s0.8,0.7,1.4,1s1.3,0.5,2,0.8c0.8,0.2,1.5,0.5,2.3,0.7s1.5,0.6,2.3,0.9c0.8,0.3,1.4,0.8,2,1.3c0.6,0.5,1.1,1.2,1.4,1.9
		c0.4,0.7,0.5,1.6,0.5,2.7c0,1.2-0.2,2.4-0.7,3.4c-0.5,1-1.1,1.9-2,2.7c-0.9,0.8-1.9,1.4-3.2,1.8c-1.3,0.4-2.7,0.6-4.4,0.6
		c-0.9,0-1.7-0.1-2.6-0.2s-1.6-0.4-2.4-0.7s-1.5-0.6-2.2-1c-0.7-0.4-1.2-0.8-1.7-1.2l1.4-2.3c0.2-0.3,0.4-0.5,0.7-0.7s0.6-0.2,1-0.2
		c0.4,0,0.7,0.1,1.1,0.3c0.3,0.2,0.7,0.5,1.2,0.7c0.5,0.2,1,0.5,1.6,0.7s1.4,0.3,2.3,0.3c0.7,0,1.4-0.1,1.9-0.3
		c0.5-0.2,1-0.4,1.3-0.7s0.6-0.6,0.8-1s0.2-0.8,0.2-1.2c0-0.6-0.2-1.1-0.5-1.5c-0.4-0.4-0.8-0.7-1.4-1c-0.6-0.3-1.3-0.5-2-0.8
		c-0.8-0.2-1.5-0.5-2.3-0.7s-1.6-0.6-2.3-0.9c-0.8-0.4-1.4-0.8-2-1.4c-0.6-0.5-1.1-1.2-1.4-2c-0.4-0.8-0.5-1.8-0.5-2.9
		c0-1.1,0.2-2.1,0.6-3c0.4-1,1-1.8,1.8-2.5c0.8-0.7,1.8-1.3,3-1.7c1.2-0.4,2.6-0.6,4.2-0.6c1.8,0,3.4,0.3,4.8,0.9s2.7,1.3,3.6,2.3
		L640.5,94.2z"/>
	<path class="st0" d="M657.7,88.8c1.6,0,3.1,0.3,4.5,0.8c1.4,0.5,2.5,1.3,3.5,2.3c1,1,1.8,2.2,2.3,3.7s0.8,3.1,0.8,4.9
		c0,0.5,0,0.9-0.1,1.2c0,0.3-0.1,0.5-0.2,0.7c-0.1,0.2-0.3,0.3-0.4,0.4c-0.2,0.1-0.4,0.1-0.7,0.1h-15.9c0.2,2.6,0.9,4.6,2.1,5.8
		s2.9,1.8,4.9,1.8c1,0,1.9-0.1,2.6-0.3c0.7-0.2,1.4-0.5,1.9-0.8c0.5-0.3,1-0.5,1.4-0.8s0.8-0.4,1.2-0.4c0.2,0,0.5,0.1,0.7,0.2
		s0.3,0.2,0.5,0.4l1.8,2.2c-0.7,0.8-1.5,1.5-2.3,2c-0.8,0.5-1.7,1-2.7,1.3s-1.9,0.6-2.8,0.7s-1.9,0.2-2.8,0.2c-1.8,0-3.4-0.3-5-0.9
		c-1.5-0.6-2.9-1.5-4-2.6c-1.1-1.2-2-2.6-2.7-4.3c-0.6-1.7-1-3.7-1-5.9c0-1.8,0.3-3.4,0.8-4.9c0.6-1.5,1.4-2.9,2.4-4
		c1.1-1.1,2.4-2,3.9-2.7C654,89.2,655.8,88.8,657.7,88.8z M657.8,93.3c-1.8,0-3.2,0.5-4.2,1.5s-1.7,2.5-2,4.3h11.6
		c0-0.8-0.1-1.6-0.3-2.3c-0.2-0.7-0.5-1.3-1-1.9c-0.5-0.5-1-1-1.7-1.3S658.7,93.3,657.8,93.3z"/>
	<path class="st0" d="M693.9,114.9h-2.8c-0.6,0-1-0.1-1.4-0.3c-0.3-0.2-0.6-0.5-0.8-1.1l-0.5-1.8c-0.7,0.6-1.3,1.1-1.9,1.5
		s-1.3,0.8-1.9,1.1c-0.7,0.3-1.4,0.5-2.1,0.7c-0.8,0.2-1.6,0.2-2.5,0.2c-1.1,0-2.1-0.1-3-0.4c-0.9-0.3-1.7-0.7-2.4-1.3
		s-1.2-1.3-1.5-2.2c-0.4-0.9-0.5-1.9-0.5-3c0-1,0.3-1.9,0.8-2.9c0.5-0.9,1.4-1.8,2.5-2.6c1.2-0.8,2.8-1.4,4.7-1.9
		c2-0.5,4.4-0.8,7.3-0.8v-1.5c0-1.7-0.4-3-1.1-3.8c-0.7-0.8-1.8-1.2-3.2-1.2c-1,0-1.8,0.1-2.5,0.3c-0.7,0.2-1.2,0.5-1.7,0.8
		c-0.5,0.3-0.9,0.6-1.4,0.8c-0.4,0.2-0.9,0.4-1.4,0.4c-0.4,0-0.8-0.1-1.1-0.3s-0.5-0.5-0.7-0.8l-1.1-2c3-2.7,6.5-4,10.7-4
		c1.5,0,2.8,0.2,4,0.7c1.2,0.5,2.2,1.2,3,2c0.8,0.9,1.4,1.9,1.9,3.1c0.4,1.2,0.6,2.5,0.6,4V114.9z M681.9,111c0.6,0,1.2-0.1,1.8-0.2
		c0.5-0.1,1-0.3,1.5-0.5c0.5-0.2,0.9-0.5,1.4-0.8c0.4-0.3,0.9-0.7,1.3-1.2V104c-1.8,0-3.3,0.1-4.5,0.3s-2.2,0.5-2.9,0.9
		s-1.3,0.8-1.6,1.2c-0.3,0.5-0.5,1-0.5,1.5c0,1.1,0.3,1.9,1,2.3C680,110.8,680.9,111,681.9,111z"/>
	<path class="st0" d="M700,114.9V89.2h3.6c0.6,0,1.1,0.1,1.3,0.4s0.4,0.6,0.5,1.2l0.4,3.1c0.9-1.6,2-2.8,3.2-3.8
		c1.2-0.9,2.6-1.4,4.2-1.4c1.3,0,2.3,0.3,3.2,0.9l-0.8,4.6c0,0.3-0.2,0.5-0.3,0.6c-0.2,0.1-0.4,0.2-0.7,0.2c-0.2,0-0.6-0.1-1-0.2
		c-0.4-0.1-1-0.2-1.7-0.2c-1.3,0-2.4,0.4-3.3,1.1c-0.9,0.7-1.7,1.7-2.3,3.1v16H700z"/>
	<path class="st0" d="M738.4,94.7c-0.2,0.2-0.4,0.4-0.5,0.5c-0.2,0.1-0.4,0.2-0.8,0.2c-0.3,0-0.6-0.1-0.9-0.3
		c-0.3-0.2-0.7-0.4-1.1-0.6c-0.4-0.2-0.9-0.5-1.5-0.7c-0.6-0.2-1.3-0.3-2.1-0.3c-1.1,0-2,0.2-2.9,0.6s-1.5,1-2,1.7
		c-0.5,0.7-0.9,1.6-1.2,2.7c-0.3,1-0.4,2.2-0.4,3.5c0,1.4,0.1,2.6,0.4,3.7c0.3,1.1,0.7,2,1.3,2.7c0.6,0.7,1.2,1.3,2,1.6
		s1.7,0.6,2.7,0.6s1.8-0.1,2.4-0.4c0.6-0.2,1.1-0.5,1.5-0.8s0.8-0.6,1.1-0.8c0.3-0.2,0.7-0.4,1-0.4c0.5,0,0.9,0.2,1.1,0.6l1.8,2.2
		c-0.7,0.8-1.4,1.5-2.2,2c-0.8,0.5-1.6,1-2.5,1.3s-1.7,0.6-2.7,0.7c-0.9,0.1-1.8,0.2-2.7,0.2c-1.6,0-3.1-0.3-4.5-0.9
		c-1.4-0.6-2.6-1.5-3.7-2.6c-1-1.1-1.9-2.5-2.5-4.2s-0.9-3.5-0.9-5.6c0-1.9,0.3-3.6,0.8-5.2c0.5-1.6,1.3-3,2.4-4.2
		c1-1.2,2.3-2.1,3.9-2.8s3.3-1,5.4-1c1.9,0,3.6,0.3,5,0.9c1.4,0.6,2.7,1.5,3.9,2.7L738.4,94.7z"/>
	<path class="st0" d="M744.2,114.9V77.7h6.2V92c1-1,2.1-1.7,3.3-2.3c1.2-0.6,2.6-0.9,4.2-0.9c1.4,0,2.6,0.2,3.7,0.7
		c1.1,0.5,2,1.1,2.7,2c0.7,0.9,1.3,1.9,1.7,3.1c0.4,1.2,0.6,2.5,0.6,3.9v16.3h-6.2V98.6c0-1.6-0.4-2.8-1.1-3.6
		c-0.7-0.9-1.8-1.3-3.3-1.3c-1.1,0-2.1,0.2-3,0.7c-0.9,0.5-1.8,1.1-2.7,2v18.5H744.2z"/>
</g>
</svg>
