<?xml version="1.0" encoding="utf-8"?>
<!-- Generator: Adobe Illustrator 25.2.3, SVG Export Plug-In . SVG Version: 6.00 Build 0)  -->
<svg version="1.1" id="Logo" xmlns="http://www.w3.org/2000/svg" xmlns:xlink="http://www.w3.org/1999/xlink" x="0px" y="0px"
	 viewBox="0 0 251.4 156.5" style="enable-background:new 0 0 251.4 156.5;" xml:space="preserve">
<style type="text/css">
	.st0{fill:#004785;}
	.st1{fill:#00794C;}
</style>
<g id="Observatory">
	<path class="st0" d="M111.6,35.8c0,0-32,16.9-32,102.1l-27.4,0C52.2,137.9,49.1,54.6,111.6,35.8z"/>
	<path class="st0" d="M94.3,38.8c0,0-48,22.8-47.5,99.1H23.8C23.8,137.9,23.8,58,94.3,38.8z"/>
	<path class="st0" d="M134.2,32.3c-50.7,0-49.4,105.6-49.4,105.6H183C183,137.9,185.4,32.3,134.2,32.3z M154.4,119.6
		c-0.2-1.1-1.1-1.6-1.1-1.6c-2-1.4-6.2-0.5-6.2-0.5c-6.1,1.6-8.7,2-8.7,2c-13.3,1.7-20.8-6-20.8-6c-14-14.6-5.9-29.7-5.9-29.7
		c0,0.7,0.2,2.5,0.2,2.5c1-5,3.2-8.2,3.2-8.2c0.1,1,0.2,2.9,0.2,2.9c2.2-5.3,4.2-7,4.2-7c-0.1,0.5-0.1,3.3-0.1,3.3
		c2.4-4.6,4.5-6,4.5-6c0,0.8-0.5,3.2-0.5,3.2c3.7-4.6,7.2-5.1,7.2-5.1c-10,10.4-9.4,23.5-9.4,23.5c0.3,13.5,10.5,20.2,10.5,20.2
		l-1.4,0.9c0.8,0.3,4.9,1.2,4.9,1.2c-0.1,0.2-0.6,1.4-0.6,1.4c0.9,0.2,5,0.6,5,0.6c-0.1,0.3-0.3,1-0.3,1c0.7,0,7.6-1.7,7.6-1.7
		c5-1.1,7,0.6,7,0.6c0.4-3.5-3.6-3.8-3.6-3.8c0.3-0.5,0.1-0.9,0.1-0.9c-0.9-2.1-10.6-2.2-10.6-2.2c7.6-8.5,6.7-19.5,6.7-19.5
		c0.2-10.5-9.5-21.3-9.5-21.3c3.1,1,7,5,7,5c-0.3-1.4-0.5-3.2-0.5-3.2c1.6,1.2,4.6,5.7,4.6,5.7c-0.1-0.7-0.1-2.9-0.1-2.9
		c1.4,1.1,4.3,6.8,4.3,6.8c0-0.6,0.2-3,0.2-3c1.4,1.6,3.4,8.2,3.4,8.2c0-0.6,0.3-2.3,0.3-2.3c7.3,15.3-4.7,29-4.7,29
		C156.7,113.5,154.4,119.6,154.4,119.6z M147.1,112.4c0,0,2.6-0.2,2.1,0.7l-0.4,0.7C148.9,113.7,149,113.2,147.1,112.4z"/>
	<path class="st0" d="M19.2,137.9c2-74.2,48.8-109.3,114.7-109.3c0.1,0,0.1-11,0.1-11C52.2,19.2,8.8,60.9,6.7,137.9"/>
	<path class="st0" d="M188.6,137.9c-1-93.9-33.1-101.8-33.1-101.8s54.2,7.3,59.8,101.8L188.6,137.9z"/>
	<path class="st0" d="M172.1,38.8c0,0,43.3,14.6,48.6,99.1h23.9C244.6,137.9,245.1,59.1,172.1,38.8z"/>
	<polygon class="st1" points="190.5,0 193.2,4.9 198.1,7.5 193.2,10.2 190.5,15.1 187.9,10.2 183,7.5 187.9,4.9 	"/>
	<polygon class="st1" points="168.4,7.5 172,14 178.5,17.6 172,21.1 168.4,27.6 164.9,21.1 158.4,17.6 164.9,14 	"/>
	<polygon class="st1" points="227.1,32.3 231,39.4 238.1,43.3 231,47.2 227.1,54.3 223.2,47.2 216.1,43.3 223.2,39.4 	"/>
	<rect y="141.8" class="st1" width="251.4" height="14.6"/>
</g>
</svg>
