<?xml version="1.0" encoding="utf-8"?>
<!-- Generator: Adobe Illustrator 25.2.3, SVG Export Plug-In . SVG Version: 6.00 Build 0)  -->
<svg version="1.1" id="Logo" xmlns="http://www.w3.org/2000/svg" xmlns:xlink="http://www.w3.org/1999/xlink" x="0px" y="0px"
	 viewBox="0 0 251.4 156.5" style="enable-background:new 0 0 251.4 156.5;" xml:space="preserve">
<style type="text/css">
	.st0{fill:#00794C;}
	.st1{fill:#004785;}
</style>
<g>
	<polygon class="st0" points="190.2,0 192.9,4.9 197.8,7.5 192.9,10.2 190.2,15.1 187.6,10.2 182.7,7.5 187.6,4.9 	"/>
	<polygon class="st0" points="168.1,7.5 171.7,14 178.2,17.6 171.7,21.1 168.1,27.6 164.6,21.1 158.1,17.6 164.6,14 	"/>
	<polygon class="st0" points="226.8,32.3 230.7,39.4 237.8,43.3 230.7,47.2 226.8,54.3 222.9,47.2 215.8,43.3 222.9,39.4 	"/>
	<rect y="141.8" class="st0" width="251.4" height="14.6"/>
	<g>
		<path class="st1" d="M116,37.1C80,48,53.1,89,53.1,137.9h28.3c0-28.5,5.4-55.3,15.3-75.5C102.2,51.1,108.8,42.5,116,37.1z"/>
		<path class="st1" d="M109.6,35.1C60.7,46,24.2,87.9,24.2,137.9h24.9C49.1,89.6,74.6,48.7,109.6,35.1z"/>
		<path class="st1" d="M134.9,28.3V13.9c-71.2,0-129.1,55.6-129.1,124h14.4C20.2,77.5,71.7,28.3,134.9,28.3z"/>
		<path class="st1" d="M153.8,37.1c7.2,5.4,13.8,13.9,19.3,25.2c9.9,20.2,15.3,47,15.3,75.5h28.3C216.7,89,189.8,48,153.8,37.1z"/>
		<path class="st1" d="M134.9,34.3c-27.3,0-49.5,46.5-49.5,103.6h99C184.4,80.8,162.2,34.3,134.9,34.3z M157,83.4
			c7.3,15.3-4.7,29-4.7,29c5.4,1.1,3.1,7.1,3.1,7.1c-0.2-1.1-1.1-1.6-1.1-1.6c-2-1.4-6.2-0.5-6.2-0.5c-6.1,1.6-8.7,2-8.7,2
			c-13.3,1.7-20.8-6-20.8-6c-14-14.6-5.9-29.7-5.9-29.7c0,0.7,0.2,2.5,0.2,2.5c1-5,3.2-8.2,3.2-8.2c0.1,1,0.2,2.9,0.2,2.9
			c2.2-5.3,4.2-7,4.2-7c-0.1,0.5-0.1,3.3-0.1,3.3c2.4-4.6,4.5-6,4.5-6c0,0.8-0.5,3.2-0.5,3.2c3.7-4.6,7.2-5.1,7.2-5.1
			c-10,10.4-9.4,23.5-9.4,23.5c0.3,13.5,10.5,20.2,10.5,20.2l-1.4,0.9c0.8,0.3,4.9,1.2,4.9,1.2c-0.1,0.2-0.6,1.4-0.6,1.4
			c0.9,0.2,5,0.6,5,0.6c-0.1,0.3-0.3,1-0.3,1c0.7,0,7.6-1.7,7.6-1.7c5-1.1,7,0.6,7,0.6c0.4-3.5-3.6-3.8-3.6-3.8
			c0.3-0.5,0.1-0.9,0.1-0.9c-0.9-2.1-10.6-2.2-10.6-2.2c7.6-8.5,6.7-19.5,6.7-19.5c0.2-10.5-9.5-21.3-9.5-21.3c3.1,1,7,5,7,5
			c-0.3-1.4-0.5-3.2-0.5-3.2c1.6,1.2,4.6,5.7,4.6,5.7c-0.1-0.7-0.1-2.9-0.1-2.9c1.4,1.1,4.3,6.8,4.3,6.8c0-0.6,0.2-3,0.2-3
			c1.4,1.6,3.4,8.2,3.4,8.2C156.8,85.1,157,83.4,157,83.4z M148.1,112.4c0,0,2.6-0.2,2.1,0.7l-0.4,0.7
			C149.9,113.7,150,113.2,148.1,112.4z"/>
		<path class="st1" d="M160.2,35.1c35,13.6,60.5,54.5,60.5,102.8h24.9C245.6,87.9,209.1,46,160.2,35.1z"/>
	</g>
</g>
</svg>
