<?xml version="1.0" encoding="utf-8"?>
<!-- Generator: Adobe Illustrator 25.2.3, SVG Export Plug-In . SVG Version: 6.00 Build 0)  -->
<svg version="1.1" id="Logo" xmlns="http://www.w3.org/2000/svg" xmlns:xlink="http://www.w3.org/1999/xlink" x="0px" y="0px"
	 viewBox="0 0 513.3 229.9" style="enable-background:new 0 0 513.3 229.9;" xml:space="preserve">
<style type="text/css">
	.st0{fill:#004785;}
	.st1{fill:#00794C;}
	.st2{fill:none;}
	.st3{enable-background:new    ;}
</style>
<g id="Observatory">
	<path class="st0" d="M242.6,35.8c0,0-32,16.9-32,102.1h-27.4C183.2,137.9,180.1,54.6,242.6,35.8z"/>
	<path class="st0" d="M225.2,38.8c0,0-48,22.8-47.5,99.1h-22.9C154.8,137.9,154.8,58,225.2,38.8z"/>
	<path class="st0" d="M265.2,32.3c-50.7,0-49.4,105.6-49.4,105.6H314C313.9,137.9,316.3,32.3,265.2,32.3z M285.4,119.6
		c-0.2-1.1-1.1-1.6-1.1-1.6c-2-1.4-6.2-0.5-6.2-0.5c-6.1,1.6-8.7,2-8.7,2c-13.3,1.7-20.8-6-20.8-6c-14-14.6-5.9-29.7-5.9-29.7
		c0,0.7,0.2,2.5,0.2,2.5c1-5,3.2-8.2,3.2-8.2c0.1,1,0.2,2.9,0.2,2.9c2.2-5.3,4.2-7,4.2-7c-0.1,0.5-0.1,3.3-0.1,3.3
		c2.4-4.6,4.5-6,4.5-6c0,0.8-0.5,3.2-0.5,3.2c3.7-4.6,7.2-5.1,7.2-5.1c-10,10.4-9.4,23.5-9.4,23.5c0.3,13.5,10.5,20.2,10.5,20.2
		l-1.4,0.9c0.8,0.3,4.9,1.2,4.9,1.2c-0.1,0.2-0.6,1.4-0.6,1.4c0.9,0.2,5,0.6,5,0.6c-0.1,0.3-0.3,1-0.3,1c0.7,0,7.6-1.7,7.6-1.7
		c5-1.1,7,0.6,7,0.6c0.4-3.5-3.6-3.8-3.6-3.8c0.3-0.5,0.1-0.9,0.1-0.9c-0.9-2.1-10.6-2.2-10.6-2.2c7.6-8.5,6.7-19.5,6.7-19.5
		c0.2-10.5-9.5-21.3-9.5-21.3c3.1,1,7,5,7,5c-0.3-1.4-0.5-3.2-0.5-3.2c1.6,1.2,4.6,5.7,4.6,5.7C279,76.2,279,74,279,74
		c1.4,1.1,4.3,6.8,4.3,6.8c0-0.6,0.2-3,0.2-3c1.4,1.6,3.4,8.2,3.4,8.2c0-0.6,0.3-2.3,0.3-2.3c7.3,15.3-4.7,29-4.7,29
		C287.6,113.5,285.4,119.6,285.4,119.6z M278.1,112.4c0,0,2.6-0.2,2.1,0.7l-0.4,0.7C279.8,113.7,279.9,113.2,278.1,112.4z"/>
	<path class="st0" d="M150.1,137.9c2-74.2,48.8-109.3,114.7-109.3c0.1,0,0.1-11,0.1-11c-81.7,1.6-125.2,43.3-127.2,120.3"/>
	<path class="st0" d="M319.6,137.9c-1-93.9-33.1-101.8-33.1-101.8s54.2,7.3,59.8,101.8H319.6z"/>
	<path class="st0" d="M303,38.8c0,0,43.3,14.6,48.6,99.1h23.9C375.6,137.9,376.1,59.1,303,38.8z"/>
	<polygon class="st1" points="321.5,0 324.1,4.9 329,7.5 324.1,10.2 321.5,15.1 318.8,10.2 313.9,7.5 318.8,4.9 	"/>
	<polygon class="st1" points="299.4,7.5 302.9,14 309.4,17.6 302.9,21.1 299.4,27.6 295.8,21.1 289.3,17.6 295.8,14 	"/>
	<polygon class="st1" points="358.1,32.3 362,39.4 369.1,43.3 362,47.2 358.1,54.3 354.2,47.2 347.1,43.3 354.2,39.4 	"/>
	<rect x="131" y="141.8" class="st1" width="251.4" height="14.6"/>
</g>
<rect y="183.7" class="st2" width="513.3" height="42"/>
<g class="st3">
	<path class="st0" d="M29.6,184.7v5.4h-16v10.7h13.5v5.4H13.6v14.7H6.8v-36.2H29.6z"/>
	<path class="st0" d="M51.5,215.9c1.5,0,2.8-0.1,4-0.4c1.1-0.3,2.2-0.7,3.2-1.1v-6.6h-4.5c-0.4,0-0.8-0.1-1-0.4
		c-0.2-0.2-0.4-0.5-0.4-0.9v-3.8h12v14.6c-0.9,0.7-1.9,1.2-2.9,1.7c-1,0.5-2.1,0.9-3.2,1.2s-2.3,0.6-3.6,0.7
		c-1.3,0.2-2.7,0.2-4.1,0.2c-2.6,0-5.1-0.5-7.3-1.4c-2.2-0.9-4.1-2.2-5.8-3.8c-1.6-1.6-2.9-3.6-3.8-5.9c-0.9-2.3-1.4-4.7-1.4-7.4
		c0-2.7,0.4-5.2,1.3-7.5c0.9-2.3,2.1-4.2,3.8-5.9c1.6-1.6,3.6-2.9,5.9-3.8c2.3-0.9,4.9-1.3,7.8-1.3c2.9,0,5.5,0.4,7.7,1.3
		c2.2,0.9,4,2,5.5,3.4l-2,3c-0.4,0.6-0.9,0.9-1.5,0.9c-0.4,0-0.8-0.1-1.2-0.4c-0.5-0.3-1.1-0.6-1.6-1c-0.6-0.3-1.2-0.6-1.9-0.8
		c-0.7-0.2-1.4-0.4-2.3-0.6c-0.8-0.2-1.8-0.2-2.9-0.2c-1.8,0-3.4,0.3-4.8,0.9c-1.4,0.6-2.7,1.5-3.7,2.6c-1,1.1-1.8,2.5-2.4,4
		c-0.5,1.6-0.8,3.3-0.8,5.2c0,2.1,0.3,3.9,0.9,5.6s1.4,3,2.5,4.1c1,1.1,2.3,2,3.8,2.6C48.2,215.6,49.8,215.9,51.5,215.9z"/>
	<path class="st0" d="M95.9,212.3c0.4,0,0.7,0.1,1,0.4l2.6,2.9c-1.5,1.8-3.3,3.2-5.4,4.2s-4.7,1.5-7.7,1.5c-2.7,0-5.1-0.5-7.2-1.4
		c-2.1-0.9-4-2.2-5.5-3.8s-2.7-3.6-3.5-5.9c-0.8-2.3-1.2-4.7-1.2-7.4c0-2.7,0.5-5.2,1.4-7.5c0.9-2.3,2.2-4.2,3.8-5.8
		c1.6-1.6,3.6-2.9,5.9-3.8s4.8-1.4,7.5-1.4c2.7,0,5,0.4,7,1.3c2,0.9,3.7,2,5.2,3.4l-2.2,3.1c-0.1,0.2-0.3,0.4-0.5,0.5
		c-0.2,0.2-0.5,0.2-0.9,0.2c-0.4,0-0.8-0.2-1.2-0.5s-0.9-0.6-1.5-1c-0.6-0.3-1.4-0.7-2.3-1c-0.9-0.3-2.1-0.5-3.6-0.5
		c-1.7,0-3.3,0.3-4.7,0.9c-1.4,0.6-2.6,1.4-3.7,2.5c-1,1.1-1.8,2.4-2.4,4c-0.6,1.6-0.9,3.3-0.9,5.3c0,2,0.3,3.8,0.9,5.4
		c0.6,1.6,1.4,2.9,2.3,4c1,1.1,2.1,1.9,3.5,2.5c1.3,0.6,2.8,0.9,4.3,0.9c0.9,0,1.7,0,2.5-0.2c0.7-0.1,1.4-0.3,2-0.5s1.2-0.5,1.8-0.8
		c0.6-0.3,1.1-0.8,1.7-1.3c0.2-0.1,0.3-0.3,0.5-0.4C95.5,212.4,95.7,212.3,95.9,212.3z"/>
	<path class="st0" d="M119.1,215.4c1.3,0,2.5-0.2,3.5-0.7c1-0.4,1.9-1,2.6-1.8c0.7-0.8,1.2-1.7,1.6-2.8c0.4-1.1,0.6-2.4,0.6-3.8
		v-21.7h6.7v21.7c0,2.2-0.3,4.1-1,6c-0.7,1.8-1.7,3.4-3,4.7c-1.3,1.3-2.9,2.4-4.7,3.1c-1.9,0.7-3.9,1.1-6.2,1.1
		c-2.3,0-4.4-0.4-6.2-1.1c-1.9-0.7-3.4-1.8-4.7-3.1s-2.3-2.9-3-4.7c-0.7-1.8-1-3.8-1-6v-21.7h6.7v21.6c0,1.4,0.2,2.6,0.6,3.8
		c0.4,1.1,0.9,2.1,1.6,2.9c0.7,0.8,1.6,1.4,2.6,1.8C116.6,215.2,117.8,215.4,119.1,215.4z"/>
	<path class="st0" d="M170,191.3c-0.2,0.4-0.4,0.6-0.6,0.8c-0.2,0.1-0.5,0.2-0.9,0.2s-0.7-0.1-1.1-0.4c-0.4-0.3-0.9-0.5-1.5-0.9
		c-0.6-0.3-1.2-0.6-2-0.9c-0.8-0.3-1.7-0.4-2.7-0.4c-0.9,0-1.7,0.1-2.4,0.3c-0.7,0.2-1.3,0.5-1.8,0.9c-0.5,0.4-0.8,0.9-1.1,1.4
		s-0.4,1.2-0.4,1.8c0,0.9,0.2,1.6,0.7,2.1c0.5,0.6,1.1,1.1,1.9,1.5c0.8,0.4,1.7,0.8,2.7,1.1s2,0.7,3.1,1s2.1,0.8,3.1,1.2
		c1,0.5,1.9,1.1,2.7,1.8c0.8,0.7,1.4,1.6,1.9,2.7c0.5,1.1,0.7,2.3,0.7,3.8c0,1.6-0.3,3.2-0.8,4.6s-1.4,2.7-2.4,3.7
		c-1.1,1.1-2.4,1.9-3.9,2.5c-1.6,0.6-3.3,0.9-5.3,0.9c-1.1,0-2.3-0.1-3.4-0.3c-1.1-0.2-2.2-0.5-3.2-1c-1-0.4-2-0.9-2.9-1.5
		c-0.9-0.6-1.7-1.2-2.4-1.9l2-3.2c0.2-0.2,0.4-0.4,0.7-0.6c0.3-0.2,0.5-0.2,0.9-0.2c0.4,0,0.9,0.2,1.4,0.5c0.5,0.3,1.1,0.7,1.7,1.1
		c0.7,0.4,1.4,0.8,2.3,1.1c0.9,0.3,2,0.5,3.2,0.5c1.9,0,3.4-0.5,4.4-1.4c1.1-0.9,1.6-2.2,1.6-3.9c0-1-0.2-1.7-0.7-2.3
		c-0.5-0.6-1.1-1.1-1.9-1.5c-0.8-0.4-1.7-0.8-2.7-1s-2-0.6-3.1-0.9s-2-0.7-3-1.2s-1.9-1.1-2.7-1.8c-0.8-0.8-1.4-1.7-1.9-2.8
		s-0.7-2.5-0.7-4.2c0-1.3,0.3-2.6,0.8-3.9c0.5-1.2,1.3-2.4,2.3-3.3c1-1,2.2-1.7,3.7-2.3c1.5-0.6,3.1-0.9,5-0.9c2.1,0,4.1,0.3,5.9,1
		c1.8,0.7,3.3,1.6,4.6,2.8L170,191.3z"/>
	<path class="st0" d="M185.5,221.3c-2.2,0-3.9-0.6-5.1-1.9c-1.2-1.3-1.8-3-1.8-5.2v-14.3H176c-0.3,0-0.6-0.1-0.9-0.3s-0.4-0.5-0.4-1
		v-2.5l4.1-0.7l1.3-7c0.1-0.3,0.2-0.6,0.5-0.8s0.5-0.3,0.9-0.3h3.2v8.1h6.8v4.4h-6.8v13.9c0,0.8,0.2,1.4,0.6,1.9
		c0.4,0.5,0.9,0.7,1.6,0.7c0.4,0,0.7,0,1-0.1c0.3-0.1,0.5-0.2,0.7-0.3c0.2-0.1,0.4-0.2,0.5-0.3c0.1-0.1,0.3-0.1,0.4-0.1
		c0.2,0,0.3,0,0.5,0.1c0.1,0.1,0.2,0.2,0.4,0.4l1.9,3c-0.9,0.8-1.9,1.3-3.1,1.7C188,221.1,186.8,221.3,185.5,221.3z"/>
	<path class="st0" d="M207,194.8c1.6,0,3.1,0.3,4.5,0.8c1.4,0.5,2.5,1.3,3.5,2.3c1,1,1.8,2.2,2.3,3.7c0.6,1.4,0.8,3.1,0.8,4.9
		c0,0.5,0,0.9-0.1,1.2c0,0.3-0.1,0.5-0.2,0.7c-0.1,0.2-0.3,0.3-0.4,0.4c-0.2,0.1-0.4,0.1-0.7,0.1h-15.9c0.2,2.6,0.9,4.6,2.1,5.8
		c1.2,1.2,2.9,1.8,4.9,1.8c1,0,1.9-0.1,2.6-0.3s1.4-0.5,1.9-0.8c0.5-0.3,1-0.5,1.4-0.8c0.4-0.2,0.8-0.4,1.2-0.4
		c0.2,0,0.5,0.1,0.6,0.2c0.2,0.1,0.3,0.2,0.5,0.4l1.8,2.2c-0.7,0.8-1.4,1.5-2.3,2c-0.9,0.5-1.7,1-2.7,1.3s-1.9,0.6-2.8,0.7
		s-1.9,0.2-2.8,0.2c-1.8,0-3.4-0.3-5-0.9c-1.5-0.6-2.9-1.5-4-2.6c-1.1-1.2-2-2.6-2.7-4.3c-0.6-1.7-1-3.7-1-5.9
		c0-1.8,0.3-3.4,0.8-4.9c0.6-1.5,1.4-2.9,2.4-4c1.1-1.1,2.4-2,3.9-2.7C203.4,195.2,205.1,194.8,207,194.8z M207.2,199.2
		c-1.8,0-3.2,0.5-4.2,1.5s-1.7,2.5-1.9,4.3h11.6c0-0.8-0.1-1.6-0.3-2.3c-0.2-0.7-0.5-1.3-1-1.9c-0.5-0.5-1-1-1.7-1.3
		S208.1,199.2,207.2,199.2z"/>
	<path class="st0" d="M229.7,183.7v37.2h-6.2v-37.2H229.7z"/>
	<path class="st0" d="M243.3,183.7v37.2h-6.2v-37.2H243.3z"/>
	<path class="st0" d="M270.4,220.9h-2.8c-0.6,0-1-0.1-1.4-0.3s-0.6-0.5-0.8-1.1l-0.5-1.8c-0.7,0.6-1.3,1.1-1.9,1.5s-1.3,0.8-1.9,1.1
		c-0.7,0.3-1.4,0.5-2.1,0.7c-0.8,0.2-1.6,0.2-2.5,0.2c-1.1,0-2.1-0.1-3-0.4c-0.9-0.3-1.7-0.7-2.4-1.3s-1.2-1.3-1.5-2.2
		c-0.4-0.9-0.6-1.9-0.6-3c0-1,0.3-1.9,0.8-2.9c0.5-0.9,1.4-1.8,2.5-2.6c1.2-0.8,2.8-1.4,4.7-1.9c2-0.5,4.4-0.8,7.3-0.8v-1.5
		c0-1.7-0.4-3-1.1-3.8c-0.7-0.8-1.8-1.2-3.2-1.2c-1,0-1.8,0.1-2.5,0.3c-0.7,0.2-1.2,0.5-1.7,0.8c-0.5,0.3-0.9,0.6-1.4,0.8
		s-0.9,0.4-1.4,0.4c-0.4,0-0.8-0.1-1.1-0.3c-0.3-0.2-0.5-0.5-0.7-0.8l-1.1-2c2.9-2.7,6.5-4,10.7-4c1.5,0,2.8,0.2,4,0.7
		c1.2,0.5,2.2,1.2,3,2c0.8,0.9,1.4,1.9,1.9,3.1c0.4,1.2,0.6,2.5,0.6,4V220.9z M258.4,217c0.6,0,1.2-0.1,1.8-0.2
		c0.5-0.1,1-0.3,1.5-0.5c0.5-0.2,0.9-0.5,1.4-0.8c0.4-0.3,0.9-0.7,1.3-1.2V210c-1.8,0-3.3,0.1-4.5,0.3c-1.2,0.2-2.2,0.5-2.9,0.9
		c-0.7,0.4-1.3,0.8-1.6,1.2c-0.3,0.5-0.5,1-0.5,1.5c0,1.1,0.3,1.9,1,2.3C256.5,216.8,257.3,217,258.4,217z"/>
	<path class="st0" d="M276.4,220.9v-25.7h3.6c0.6,0,1.1,0.1,1.3,0.4s0.4,0.6,0.5,1.2l0.4,3.1c0.9-1.6,2-2.8,3.2-3.8
		c1.2-0.9,2.6-1.4,4.2-1.4c1.3,0,2.3,0.3,3.1,0.9l-0.8,4.6c0,0.3-0.2,0.5-0.3,0.6c-0.2,0.1-0.4,0.2-0.7,0.2c-0.2,0-0.6-0.1-1-0.2
		c-0.4-0.1-1-0.2-1.7-0.2c-1.3,0-2.4,0.4-3.3,1.1c-0.9,0.7-1.7,1.7-2.3,3.1v16H276.4z"/>
	<path class="st0" d="M313.8,206.7v14.1h-6.7v-36.2h11c2.5,0,4.6,0.3,6.3,0.8c1.8,0.5,3.2,1.2,4.3,2.1c1.1,0.9,2,2,2.5,3.3
		c0.5,1.3,0.8,2.7,0.8,4.2c0,1.2-0.2,2.4-0.5,3.5s-0.9,2.1-1.5,3c-0.7,0.9-1.5,1.7-2.5,2.3c-1,0.7-2.1,1.2-3.4,1.6
		c0.9,0.5,1.6,1.2,2.2,2.1l9,13.3h-6c-0.6,0-1.1-0.1-1.5-0.3s-0.8-0.6-1-1l-7.6-11.6c-0.3-0.4-0.6-0.7-0.9-0.9s-0.8-0.3-1.5-0.3
		H313.8z M313.8,201.9h4.2c1.3,0,2.4-0.2,3.3-0.5s1.7-0.8,2.3-1.3s1.1-1.2,1.4-2s0.5-1.6,0.5-2.5c0-1.8-0.6-3.2-1.8-4.2
		c-1.2-1-3.1-1.5-5.5-1.5h-4.3V201.9z"/>
	<path class="st0" d="M349.9,194.8c1.6,0,3.1,0.3,4.5,0.8c1.4,0.5,2.5,1.3,3.5,2.3c1,1,1.8,2.2,2.3,3.7s0.8,3.1,0.8,4.9
		c0,0.5,0,0.9-0.1,1.2c0,0.3-0.1,0.5-0.2,0.7c-0.1,0.2-0.3,0.3-0.4,0.4c-0.2,0.1-0.4,0.1-0.7,0.1h-15.9c0.2,2.6,0.9,4.6,2.1,5.8
		s2.9,1.8,4.9,1.8c1,0,1.9-0.1,2.6-0.3c0.7-0.2,1.4-0.5,1.9-0.8c0.5-0.3,1-0.5,1.4-0.8s0.8-0.4,1.2-0.4c0.2,0,0.5,0.1,0.7,0.2
		s0.3,0.2,0.5,0.4l1.8,2.2c-0.7,0.8-1.5,1.5-2.3,2c-0.8,0.5-1.7,1-2.7,1.3s-1.9,0.6-2.8,0.7s-1.9,0.2-2.8,0.2c-1.8,0-3.4-0.3-5-0.9
		c-1.5-0.6-2.9-1.5-4-2.6c-1.1-1.2-2-2.6-2.7-4.3c-0.6-1.7-1-3.7-1-5.9c0-1.8,0.3-3.4,0.8-4.9c0.6-1.5,1.4-2.9,2.4-4
		c1.1-1.1,2.4-2,3.9-2.7C346.2,195.2,347.9,194.8,349.9,194.8z M350,199.2c-1.8,0-3.2,0.5-4.2,1.5s-1.7,2.5-2,4.3h11.6
		c0-0.8-0.1-1.6-0.3-2.3c-0.2-0.7-0.5-1.3-1-1.9c-0.5-0.5-1-1-1.7-1.3S350.9,199.2,350,199.2z"/>
	<path class="st0" d="M381.2,200.2c-0.2,0.3-0.3,0.5-0.5,0.6c-0.2,0.1-0.4,0.2-0.7,0.2c-0.3,0-0.6-0.1-1-0.2
		c-0.3-0.2-0.7-0.4-1.2-0.6c-0.5-0.2-1-0.4-1.5-0.6s-1.3-0.2-2-0.2c-1.2,0-2.2,0.3-2.9,0.8c-0.7,0.5-1,1.2-1,2c0,0.5,0.2,1,0.5,1.4
		s0.8,0.7,1.4,1s1.3,0.5,2,0.8c0.8,0.2,1.5,0.5,2.3,0.7s1.5,0.6,2.3,0.9c0.8,0.3,1.4,0.8,2,1.3c0.6,0.5,1.1,1.2,1.4,1.9
		c0.4,0.7,0.5,1.6,0.5,2.7c0,1.2-0.2,2.4-0.7,3.4c-0.5,1-1.1,1.9-2,2.7c-0.9,0.8-1.9,1.4-3.2,1.8c-1.3,0.4-2.7,0.6-4.4,0.6
		c-0.9,0-1.7-0.1-2.6-0.2s-1.6-0.4-2.4-0.7s-1.5-0.6-2.2-1c-0.7-0.4-1.2-0.8-1.7-1.2l1.4-2.3c0.2-0.3,0.4-0.5,0.7-0.7s0.6-0.2,1-0.2
		c0.4,0,0.7,0.1,1.1,0.3c0.3,0.2,0.7,0.5,1.2,0.7c0.5,0.2,1,0.5,1.6,0.7s1.4,0.3,2.3,0.3c0.7,0,1.4-0.1,1.9-0.3
		c0.5-0.2,1-0.4,1.3-0.7s0.6-0.6,0.8-1s0.2-0.8,0.2-1.2c0-0.6-0.2-1.1-0.5-1.5c-0.4-0.4-0.8-0.7-1.4-1c-0.6-0.3-1.3-0.5-2-0.8
		c-0.8-0.2-1.5-0.5-2.3-0.7s-1.6-0.6-2.3-0.9c-0.8-0.4-1.4-0.8-2-1.4c-0.6-0.5-1.1-1.2-1.4-2c-0.4-0.8-0.5-1.8-0.5-2.9
		c0-1.1,0.2-2.1,0.6-3c0.4-1,1-1.8,1.8-2.5c0.8-0.7,1.8-1.3,3-1.7c1.2-0.4,2.6-0.6,4.2-0.6c1.8,0,3.4,0.3,4.8,0.9s2.7,1.3,3.6,2.3
		L381.2,200.2z"/>
	<path class="st0" d="M398.4,194.8c1.6,0,3.1,0.3,4.5,0.8c1.4,0.5,2.5,1.3,3.5,2.3c1,1,1.8,2.2,2.3,3.7s0.8,3.1,0.8,4.9
		c0,0.5,0,0.9-0.1,1.2c0,0.3-0.1,0.5-0.2,0.7c-0.1,0.2-0.3,0.3-0.4,0.4c-0.2,0.1-0.4,0.1-0.7,0.1h-15.9c0.2,2.6,0.9,4.6,2.1,5.8
		s2.9,1.8,4.9,1.8c1,0,1.9-0.1,2.6-0.3c0.7-0.2,1.4-0.5,1.9-0.8c0.5-0.3,1-0.5,1.4-0.8s0.8-0.4,1.2-0.4c0.2,0,0.5,0.1,0.7,0.2
		s0.3,0.2,0.5,0.4l1.8,2.2c-0.7,0.8-1.5,1.5-2.3,2c-0.8,0.5-1.7,1-2.7,1.3s-1.9,0.6-2.8,0.7s-1.9,0.2-2.8,0.2c-1.8,0-3.4-0.3-5-0.9
		c-1.5-0.6-2.9-1.5-4-2.6c-1.1-1.2-2-2.6-2.7-4.3c-0.6-1.7-1-3.7-1-5.9c0-1.8,0.3-3.4,0.8-4.9c0.6-1.5,1.4-2.9,2.4-4
		c1.1-1.1,2.4-2,3.9-2.7C394.8,195.2,396.5,194.8,398.4,194.8z M398.6,199.2c-1.8,0-3.2,0.5-4.2,1.5s-1.7,2.5-2,4.3H404
		c0-0.8-0.1-1.6-0.3-2.3c-0.2-0.7-0.5-1.3-1-1.9c-0.5-0.5-1-1-1.7-1.3S399.5,199.2,398.6,199.2z"/>
	<path class="st0" d="M434.7,220.9h-2.8c-0.6,0-1-0.1-1.4-0.3c-0.3-0.2-0.6-0.5-0.8-1.1l-0.5-1.8c-0.7,0.6-1.3,1.1-1.9,1.5
		s-1.3,0.8-1.9,1.1c-0.7,0.3-1.4,0.5-2.1,0.7c-0.8,0.2-1.6,0.2-2.5,0.2c-1.1,0-2.1-0.1-3-0.4c-0.9-0.3-1.7-0.7-2.4-1.3
		s-1.2-1.3-1.5-2.2c-0.4-0.9-0.5-1.9-0.5-3c0-1,0.3-1.9,0.8-2.9c0.5-0.9,1.4-1.8,2.5-2.6c1.2-0.8,2.8-1.4,4.7-1.9
		c2-0.5,4.4-0.8,7.3-0.8v-1.5c0-1.7-0.4-3-1.1-3.8c-0.7-0.8-1.8-1.2-3.2-1.2c-1,0-1.8,0.1-2.5,0.3c-0.7,0.2-1.2,0.5-1.7,0.8
		c-0.5,0.3-0.9,0.6-1.4,0.8c-0.4,0.2-0.9,0.4-1.4,0.4c-0.4,0-0.8-0.1-1.1-0.3s-0.5-0.5-0.7-0.8l-1.1-2c3-2.7,6.5-4,10.7-4
		c1.5,0,2.8,0.2,4,0.7c1.2,0.5,2.2,1.2,3,2c0.8,0.9,1.4,1.9,1.9,3.1c0.4,1.2,0.6,2.5,0.6,4V220.9z M422.7,217c0.6,0,1.2-0.1,1.8-0.2
		c0.5-0.1,1-0.3,1.5-0.5c0.5-0.2,0.9-0.5,1.4-0.8c0.4-0.3,0.9-0.7,1.3-1.2V210c-1.8,0-3.3,0.1-4.5,0.3s-2.2,0.5-2.9,0.9
		s-1.3,0.8-1.6,1.2c-0.3,0.5-0.5,1-0.5,1.5c0,1.1,0.3,1.9,1,2.3C420.8,216.8,421.6,217,422.7,217z"/>
	<path class="st0" d="M440.7,220.9v-25.7h3.6c0.6,0,1.1,0.1,1.3,0.4s0.4,0.6,0.5,1.2l0.4,3.1c0.9-1.6,2-2.8,3.2-3.8
		c1.2-0.9,2.6-1.4,4.2-1.4c1.3,0,2.3,0.3,3.2,0.9l-0.8,4.6c0,0.3-0.2,0.5-0.3,0.6c-0.2,0.1-0.4,0.2-0.7,0.2c-0.2,0-0.6-0.1-1-0.2
		c-0.4-0.1-1-0.2-1.7-0.2c-1.3,0-2.4,0.4-3.3,1.1c-0.9,0.7-1.7,1.7-2.3,3.1v16H440.7z"/>
	<path class="st0" d="M479.2,200.6c-0.2,0.2-0.4,0.4-0.5,0.5c-0.2,0.1-0.4,0.2-0.8,0.2c-0.3,0-0.6-0.1-0.9-0.3
		c-0.3-0.2-0.7-0.4-1.1-0.6c-0.4-0.2-0.9-0.5-1.5-0.7c-0.6-0.2-1.3-0.3-2.1-0.3c-1.1,0-2,0.2-2.9,0.6s-1.5,1-2,1.7
		c-0.5,0.7-0.9,1.6-1.2,2.7c-0.3,1-0.4,2.2-0.4,3.5c0,1.4,0.1,2.6,0.4,3.7c0.3,1.1,0.7,2,1.3,2.7c0.6,0.7,1.2,1.3,2,1.6
		s1.7,0.6,2.7,0.6s1.8-0.1,2.4-0.4c0.6-0.2,1.1-0.5,1.5-0.8s0.8-0.6,1.1-0.8c0.3-0.2,0.7-0.4,1-0.4c0.5,0,0.9,0.2,1.1,0.6l1.8,2.2
		c-0.7,0.8-1.4,1.5-2.2,2c-0.8,0.5-1.6,1-2.5,1.3s-1.7,0.6-2.7,0.7c-0.9,0.1-1.8,0.2-2.7,0.2c-1.6,0-3.1-0.3-4.5-0.9
		c-1.4-0.6-2.6-1.5-3.7-2.6c-1-1.1-1.9-2.5-2.5-4.2s-0.9-3.5-0.9-5.6c0-1.9,0.3-3.6,0.8-5.2c0.5-1.6,1.3-3,2.4-4.2
		c1-1.2,2.3-2.1,3.9-2.8s3.3-1,5.4-1c1.9,0,3.6,0.3,5,0.9c1.4,0.6,2.7,1.5,3.9,2.7L479.2,200.6z"/>
	<path class="st0" d="M485,220.9v-37.2h6.2V198c1-1,2.1-1.7,3.3-2.3c1.2-0.6,2.6-0.9,4.2-0.9c1.4,0,2.6,0.2,3.7,0.7
		c1.1,0.5,2,1.1,2.7,2c0.7,0.9,1.3,1.9,1.7,3.1c0.4,1.2,0.6,2.5,0.6,3.9v16.3h-6.2v-16.3c0-1.6-0.4-2.8-1.1-3.6
		c-0.7-0.9-1.8-1.3-3.3-1.3c-1.1,0-2.1,0.2-3,0.7c-0.9,0.5-1.8,1.1-2.7,2v18.5H485z"/>
</g>
</svg>
