<?xml version="1.0" encoding="utf-8"?>
<!-- Generator: Adobe Illustrator 25.2.3, SVG Export Plug-In . SVG Version: 6.00 Build 0)  -->
<svg version="1.1" id="Logo" xmlns="http://www.w3.org/2000/svg" xmlns:xlink="http://www.w3.org/1999/xlink" x="0px" y="0px"
	 viewBox="0 0 500.5 221.3" style="enable-background:new 0 0 500.5 221.3;" xml:space="preserve">
<style type="text/css">
	.st0{fill:#FFFFFF;}
</style>
<g>
	<path class="st0" d="M22.8,184.7v5.4h-16v10.7h13.5v5.4H6.8v14.7H0v-36.2L22.8,184.7L22.8,184.7z"/>
	<path class="st0" d="M44.7,215.9c1.5,0,2.8-0.1,4-0.4c1.1-0.3,2.2-0.7,3.2-1.1v-6.6h-4.5c-0.4,0-0.8-0.1-1-0.4
		c-0.2-0.2-0.4-0.5-0.4-0.9v-3.8h12v14.6c-0.9,0.7-1.9,1.2-2.9,1.7s-2,0.9-3.2,1.2s-2.3,0.6-3.6,0.7s-2.7,0.2-4.2,0.2
		c-2.6,0-5.1-0.5-7.3-1.4s-4.1-2.2-5.8-3.8c-1.6-1.6-2.9-3.6-3.8-5.9c-0.9-2.3-1.4-4.7-1.4-7.4s0.4-5.2,1.3-7.5s2.1-4.2,3.8-5.9
		c1.6-1.6,3.6-2.9,5.9-3.8c2.3-0.9,4.9-1.3,7.8-1.3c3,0,5.5,0.4,7.7,1.3c2.2,0.9,4,2,5.5,3.4l-2,3c-0.4,0.6-0.9,0.9-1.5,0.9
		c-0.4,0-0.8-0.1-1.2-0.4c-0.5-0.3-1.1-0.6-1.6-1c-0.6-0.3-1.2-0.6-1.8-0.8c-0.7-0.2-1.4-0.4-2.3-0.6c-0.8-0.2-1.8-0.2-2.9-0.2
		c-1.8,0-3.4,0.3-4.8,0.9c-1.4,0.6-2.7,1.5-3.7,2.6s-1.8,2.5-2.3,4c-0.5,1.6-0.8,3.3-0.8,5.2c0,2.1,0.3,3.9,0.9,5.6s1.4,3,2.5,4.1
		c1,1.1,2.3,2,3.8,2.6C41.4,215.6,43,215.9,44.7,215.9z"/>
	<path class="st0" d="M89.1,212.3c0.4,0,0.7,0.1,1,0.4l2.6,2.9c-1.5,1.8-3.3,3.2-5.4,4.2s-4.7,1.5-7.7,1.5c-2.7,0-5.1-0.5-7.2-1.4
		s-4-2.2-5.5-3.8s-2.7-3.6-3.5-5.9c-0.8-2.3-1.2-4.7-1.2-7.4s0.5-5.2,1.4-7.5c0.9-2.3,2.2-4.2,3.8-5.8s3.6-2.9,5.9-3.8
		s4.8-1.4,7.5-1.4s5,0.4,7,1.3c2,0.9,3.7,2,5.2,3.4l-2.2,3.1c-0.1,0.2-0.3,0.4-0.5,0.5c-0.2,0.2-0.5,0.2-0.9,0.2s-0.8-0.2-1.2-0.5
		s-0.9-0.6-1.5-1c-0.6-0.3-1.4-0.7-2.3-1s-2.1-0.5-3.6-0.5c-1.7,0-3.3,0.3-4.7,0.9s-2.6,1.4-3.7,2.5c-1,1.1-1.8,2.4-2.4,4
		s-0.9,3.3-0.9,5.3s0.3,3.8,0.9,5.4c0.6,1.6,1.4,2.9,2.3,4c1,1.1,2.1,1.9,3.5,2.5c1.3,0.6,2.8,0.9,4.3,0.9c0.9,0,1.7,0,2.5-0.2
		c0.7-0.1,1.4-0.3,2-0.5s1.2-0.5,1.8-0.8c0.6-0.3,1.1-0.8,1.7-1.3c0.2-0.1,0.3-0.3,0.5-0.4C88.7,212.4,88.9,212.3,89.1,212.3z"/>
	<path class="st0" d="M112.3,215.4c1.3,0,2.5-0.2,3.5-0.7c1-0.4,1.9-1,2.6-1.8s1.2-1.7,1.6-2.8s0.6-2.4,0.6-3.8v-21.7h6.7v21.7
		c0,2.2-0.3,4.1-1,6c-0.7,1.8-1.7,3.4-3,4.7s-2.9,2.4-4.7,3.1c-1.9,0.7-3.9,1.1-6.2,1.1c-2.3,0-4.4-0.4-6.2-1.1
		c-1.9-0.7-3.4-1.8-4.7-3.1s-2.3-2.9-3-4.7s-1-3.8-1-6v-21.7h6.7v21.6c0,1.4,0.2,2.6,0.6,3.8c0.4,1.1,0.9,2.1,1.6,2.9
		c0.7,0.8,1.6,1.4,2.6,1.8C109.8,215.2,111,215.4,112.3,215.4z"/>
	<path class="st0" d="M163.2,191.3c-0.2,0.4-0.4,0.6-0.6,0.8c-0.2,0.1-0.5,0.2-0.9,0.2c-0.3,0-0.7-0.1-1.1-0.4
		c-0.4-0.3-0.9-0.5-1.5-0.9c-0.6-0.3-1.2-0.6-2-0.9c-0.8-0.3-1.7-0.4-2.7-0.4c-0.9,0-1.7,0.1-2.4,0.3s-1.3,0.5-1.8,0.9
		s-0.8,0.9-1.1,1.4s-0.3,1.2-0.3,1.8c0,0.9,0.2,1.6,0.7,2.1c0.5,0.6,1.1,1.1,1.9,1.5c0.8,0.4,1.7,0.8,2.7,1.1s2,0.7,3.1,1
		s2.1,0.8,3.1,1.2c1,0.5,1.9,1.1,2.7,1.8s1.4,1.6,1.9,2.7c0.5,1.1,0.7,2.3,0.7,3.8c0,1.6-0.3,3.2-0.8,4.6s-1.4,2.7-2.5,3.7
		c-1.1,1.1-2.4,1.9-3.9,2.5s-3.3,0.9-5.3,0.9c-1.2,0-2.3-0.1-3.4-0.3c-1.1-0.2-2.2-0.5-3.2-1c-1-0.4-2-0.9-2.9-1.5s-1.7-1.2-2.4-1.9
		l1.9-3.2c0.2-0.2,0.4-0.4,0.7-0.6c0.3-0.2,0.5-0.2,0.9-0.2s0.9,0.2,1.3,0.5c0.5,0.3,1.1,0.7,1.7,1.1c0.7,0.4,1.4,0.8,2.3,1.1
		s2,0.5,3.2,0.5c1.9,0,3.4-0.5,4.5-1.4c1-0.9,1.6-2.2,1.6-3.9c0-1-0.2-1.7-0.7-2.3s-1.1-1.1-1.9-1.5c-0.8-0.4-1.7-0.8-2.7-1
		s-2-0.6-3-0.9s-2-0.7-3-1.2s-1.9-1.1-2.7-1.8c-0.8-0.8-1.4-1.7-1.9-2.8s-0.7-2.5-0.7-4.2c0-1.3,0.3-2.6,0.8-3.9
		c0.5-1.2,1.3-2.4,2.3-3.3c1-1,2.2-1.7,3.7-2.3s3.1-0.9,5-0.9c2.1,0,4.1,0.3,5.9,1s3.3,1.6,4.6,2.8L163.2,191.3z"/>
	<path class="st0" d="M178.7,221.3c-2.2,0-3.9-0.6-5.1-1.9c-1.2-1.3-1.8-3-1.8-5.2v-14.3h-2.6c-0.3,0-0.6-0.1-0.9-0.3
		c-0.2-0.2-0.4-0.5-0.4-1v-2.5l4.1-0.7l1.3-7c0.1-0.3,0.2-0.6,0.5-0.8s0.5-0.3,0.9-0.3h3.2v8.1h6.8v4.4h-6.8v13.9
		c0,0.8,0.2,1.4,0.6,1.9c0.4,0.5,0.9,0.7,1.6,0.7c0.4,0,0.7,0,1-0.1s0.5-0.2,0.7-0.3s0.4-0.2,0.5-0.3s0.3-0.1,0.5-0.1s0.3,0,0.4,0.1
		c0.1,0.1,0.2,0.2,0.4,0.4l1.9,3c-0.9,0.8-1.9,1.3-3.1,1.7C181.2,221.1,179.9,221.3,178.7,221.3z"/>
	<path class="st0" d="M200.2,194.8c1.6,0,3.1,0.3,4.5,0.8s2.5,1.3,3.5,2.3s1.8,2.2,2.3,3.7s0.8,3.1,0.8,4.9c0,0.5,0,0.9-0.1,1.2
		c0,0.3-0.1,0.5-0.2,0.7c-0.1,0.2-0.3,0.3-0.4,0.4c-0.2,0.1-0.4,0.1-0.7,0.1H194c0.2,2.6,0.9,4.6,2.1,5.8s2.9,1.8,4.9,1.8
		c1,0,1.9-0.1,2.6-0.3c0.7-0.2,1.4-0.5,1.9-0.8s1-0.5,1.4-0.8s0.8-0.4,1.2-0.4c0.2,0,0.5,0.1,0.7,0.2s0.3,0.2,0.5,0.4l1.8,2.2
		c-0.7,0.8-1.5,1.5-2.3,2s-1.7,1-2.7,1.3s-1.9,0.6-2.8,0.7s-1.9,0.2-2.8,0.2c-1.8,0-3.4-0.3-5-0.9c-1.5-0.6-2.9-1.5-4-2.6
		c-1.1-1.2-2-2.6-2.7-4.3c-0.6-1.7-1-3.7-1-5.9c0-1.8,0.3-3.4,0.8-4.9c0.6-1.5,1.4-2.9,2.4-4c1.1-1.1,2.4-2,3.9-2.7
		C196.6,195.1,198.3,194.8,200.2,194.8z M200.3,199.2c-1.8,0-3.2,0.5-4.2,1.5s-1.7,2.5-2,4.3h11.6c0-0.8-0.1-1.6-0.3-2.3
		s-0.5-1.3-1-1.9c-0.5-0.5-1-1-1.7-1.3S201.3,199.2,200.3,199.2z"/>
	<path class="st0" d="M222.9,183.7v37.2h-6.2v-37.2H222.9z"/>
	<path class="st0" d="M236.5,183.7v37.2h-6.2v-37.2H236.5z"/>
	<path class="st0" d="M263.5,220.9h-2.8c-0.6,0-1-0.1-1.4-0.3c-0.3-0.2-0.6-0.5-0.8-1.1l-0.5-1.8c-0.7,0.6-1.3,1.1-1.9,1.5
		s-1.3,0.8-1.9,1.1c-0.7,0.3-1.4,0.5-2.1,0.7c-0.8,0.2-1.6,0.2-2.5,0.2c-1.1,0-2.1-0.1-3-0.4c-0.9-0.3-1.7-0.7-2.4-1.3
		s-1.2-1.3-1.5-2.2c-0.4-0.9-0.5-1.9-0.5-3c0-1,0.3-1.9,0.8-2.9c0.5-0.9,1.4-1.8,2.5-2.6c1.2-0.8,2.8-1.4,4.7-1.9
		c2-0.5,4.4-0.8,7.3-0.8v-1.5c0-1.7-0.4-3-1.1-3.8c-0.7-0.8-1.8-1.2-3.2-1.2c-1,0-1.8,0.1-2.5,0.3s-1.2,0.5-1.7,0.8
		s-0.9,0.6-1.4,0.8c-0.4,0.2-0.9,0.4-1.4,0.4c-0.4,0-0.8-0.1-1.1-0.3s-0.5-0.5-0.7-0.8l-1.1-2c3-2.7,6.5-4,10.7-4
		c1.5,0,2.8,0.2,4,0.7s2.2,1.2,3,2c0.8,0.9,1.4,1.9,1.9,3.1c0.4,1.2,0.6,2.5,0.6,4L263.5,220.9L263.5,220.9z M251.5,217
		c0.6,0,1.2-0.1,1.8-0.2c0.5-0.1,1-0.3,1.5-0.5s0.9-0.5,1.4-0.8c0.4-0.3,0.9-0.7,1.3-1.2V210c-1.8,0-3.3,0.1-4.5,0.3
		s-2.2,0.5-2.9,0.9s-1.3,0.8-1.6,1.2c-0.3,0.5-0.5,1-0.5,1.5c0,1.1,0.3,1.9,1,2.3C249.7,216.8,250.5,217,251.5,217z"/>
	<path class="st0" d="M269.6,220.9v-25.7h3.6c0.6,0,1.1,0.1,1.3,0.4s0.4,0.6,0.5,1.2l0.4,3.1c0.9-1.6,2-2.8,3.2-3.8
		c1.2-0.9,2.6-1.4,4.2-1.4c1.3,0,2.3,0.3,3.2,0.9l-0.8,4.6c0,0.3-0.2,0.5-0.3,0.6c-0.2,0.1-0.4,0.2-0.7,0.2c-0.2,0-0.6-0.1-1-0.2
		c-0.4-0.1-1-0.2-1.7-0.2c-1.3,0-2.4,0.4-3.3,1.1c-0.9,0.7-1.7,1.7-2.3,3.1v16L269.6,220.9L269.6,220.9z"/>
	<path class="st0" d="M307,206.7v14.1h-6.7v-36.2h11c2.5,0,4.6,0.3,6.3,0.8c1.8,0.5,3.2,1.2,4.3,2.1c1.1,0.9,2,2,2.5,3.3
		s0.8,2.7,0.8,4.2c0,1.2-0.2,2.4-0.5,3.5s-0.9,2.1-1.5,3c-0.7,0.9-1.5,1.7-2.5,2.3c-1,0.7-2.1,1.2-3.4,1.6c0.9,0.5,1.6,1.2,2.2,2.1
		l9,13.3h-6c-0.6,0-1.1-0.1-1.5-0.3s-0.8-0.6-1-1l-7.6-11.6c-0.3-0.4-0.6-0.7-0.9-0.9s-0.8-0.3-1.5-0.3L307,206.7L307,206.7z
		 M307,201.9h4.2c1.3,0,2.4-0.2,3.3-0.5s1.7-0.8,2.3-1.3s1.1-1.2,1.4-2s0.5-1.6,0.5-2.5c0-1.8-0.6-3.2-1.8-4.2
		c-1.2-1-3.1-1.5-5.5-1.5H307V201.9z"/>
	<path class="st0" d="M343,194.8c1.6,0,3.1,0.3,4.5,0.8s2.5,1.3,3.5,2.3s1.8,2.2,2.3,3.7s0.8,3.1,0.8,4.9c0,0.5,0,0.9-0.1,1.2
		c0,0.3-0.1,0.5-0.2,0.7s-0.3,0.3-0.4,0.4c-0.2,0.1-0.4,0.1-0.7,0.1h-15.9c0.2,2.6,0.9,4.6,2.1,5.8s2.9,1.8,4.9,1.8
		c1,0,1.9-0.1,2.6-0.3s1.4-0.5,1.9-0.8s1-0.5,1.4-0.8s0.8-0.4,1.2-0.4c0.2,0,0.5,0.1,0.7,0.2s0.3,0.2,0.5,0.4l1.8,2.2
		c-0.7,0.8-1.5,1.5-2.3,2s-1.7,1-2.7,1.3s-1.9,0.6-2.8,0.7s-1.9,0.2-2.8,0.2c-1.8,0-3.4-0.3-5-0.9c-1.5-0.6-2.9-1.5-4-2.6
		c-1.1-1.2-2-2.6-2.7-4.3c-0.6-1.7-1-3.7-1-5.9c0-1.8,0.3-3.4,0.8-4.9c0.6-1.5,1.4-2.9,2.4-4c1.1-1.1,2.4-2,3.9-2.7
		C339.4,195.1,341.1,194.8,343,194.8z M343.2,199.2c-1.8,0-3.2,0.5-4.2,1.5s-1.7,2.5-2,4.3h11.6c0-0.8-0.1-1.6-0.3-2.3
		c-0.2-0.7-0.5-1.3-1-1.9c-0.5-0.5-1-1-1.7-1.3S344.1,199.2,343.2,199.2z"/>
	<path class="st0" d="M374.4,200.2c-0.2,0.3-0.3,0.5-0.5,0.6s-0.4,0.2-0.7,0.2c-0.3,0-0.6-0.1-1-0.2c-0.3-0.2-0.7-0.4-1.2-0.6
		c-0.5-0.2-1-0.4-1.5-0.6s-1.3-0.2-2-0.2c-1.2,0-2.2,0.3-2.9,0.8c-0.7,0.5-1,1.2-1,2c0,0.5,0.2,1,0.5,1.4s0.8,0.7,1.4,1
		s1.3,0.5,2,0.8c0.8,0.2,1.5,0.5,2.3,0.7s1.5,0.6,2.3,0.9c0.8,0.3,1.4,0.8,2,1.3s1.1,1.2,1.4,1.9c0.4,0.7,0.5,1.6,0.5,2.7
		c0,1.2-0.2,2.4-0.7,3.4s-1.1,1.9-2,2.7s-1.9,1.4-3.2,1.8c-1.3,0.4-2.7,0.6-4.4,0.6c-0.9,0-1.7-0.1-2.6-0.2s-1.6-0.4-2.4-0.7
		s-1.5-0.6-2.2-1s-1.2-0.8-1.7-1.2l1.4-2.3c0.2-0.3,0.4-0.5,0.7-0.7s0.6-0.2,1-0.2s0.7,0.1,1.1,0.3c0.3,0.2,0.7,0.5,1.2,0.7
		s1,0.5,1.6,0.7s1.4,0.3,2.3,0.3c0.7,0,1.4-0.1,1.9-0.3s1-0.4,1.3-0.7s0.6-0.6,0.8-1s0.2-0.8,0.2-1.2c0-0.6-0.2-1.1-0.5-1.5
		c-0.4-0.4-0.8-0.7-1.4-1s-1.3-0.5-2-0.8c-0.8-0.2-1.5-0.5-2.3-0.7s-1.6-0.6-2.3-0.9c-0.8-0.4-1.4-0.8-2-1.4c-0.6-0.5-1.1-1.2-1.4-2
		c-0.4-0.8-0.5-1.8-0.5-2.9c0-1.1,0.2-2.1,0.6-3c0.4-1,1-1.8,1.8-2.5s1.8-1.3,3-1.7s2.6-0.6,4.2-0.6c1.8,0,3.4,0.3,4.8,0.9
		s2.7,1.3,3.6,2.3L374.4,200.2z"/>
	<path class="st0" d="M391.6,194.8c1.6,0,3.1,0.3,4.5,0.8s2.5,1.3,3.5,2.3s1.8,2.2,2.3,3.7s0.8,3.1,0.8,4.9c0,0.5,0,0.9-0.1,1.2
		c0,0.3-0.1,0.5-0.2,0.7s-0.3,0.3-0.4,0.4c-0.2,0.1-0.4,0.1-0.7,0.1h-15.9c0.2,2.6,0.9,4.6,2.1,5.8s2.9,1.8,4.9,1.8
		c1,0,1.9-0.1,2.6-0.3s1.4-0.5,1.9-0.8s1-0.5,1.4-0.8s0.8-0.4,1.2-0.4c0.2,0,0.5,0.1,0.7,0.2s0.3,0.2,0.5,0.4l1.8,2.2
		c-0.7,0.8-1.5,1.5-2.3,2s-1.7,1-2.7,1.3s-1.9,0.6-2.8,0.7s-1.9,0.2-2.8,0.2c-1.8,0-3.4-0.3-5-0.9c-1.5-0.6-2.9-1.5-4-2.6
		c-1.1-1.2-2-2.6-2.7-4.3c-0.6-1.7-1-3.7-1-5.9c0-1.8,0.3-3.4,0.8-4.9c0.6-1.5,1.4-2.9,2.4-4c1.1-1.1,2.4-2,3.9-2.7
		C388,195.1,389.7,194.8,391.6,194.8z M391.7,199.2c-1.8,0-3.2,0.5-4.2,1.5s-1.7,2.5-2,4.3h11.6c0-0.8-0.1-1.6-0.3-2.3
		c-0.2-0.7-0.5-1.3-1-1.9c-0.5-0.5-1-1-1.7-1.3S392.7,199.2,391.7,199.2z"/>
	<path class="st0" d="M427.8,220.9H425c-0.6,0-1-0.1-1.4-0.3c-0.3-0.2-0.6-0.5-0.8-1.1l-0.5-1.8c-0.7,0.6-1.3,1.1-1.9,1.5
		s-1.3,0.8-1.9,1.1c-0.7,0.3-1.4,0.5-2.1,0.7c-0.8,0.2-1.6,0.2-2.5,0.2c-1.1,0-2.1-0.1-3-0.4c-0.9-0.3-1.7-0.7-2.4-1.3
		s-1.2-1.3-1.5-2.2c-0.4-0.9-0.5-1.9-0.5-3c0-1,0.3-1.9,0.8-2.9c0.5-0.9,1.4-1.8,2.5-2.6c1.2-0.8,2.8-1.4,4.7-1.9
		c2-0.5,4.4-0.8,7.3-0.8v-1.5c0-1.7-0.4-3-1.1-3.8s-1.8-1.2-3.2-1.2c-1,0-1.8,0.1-2.5,0.3s-1.2,0.5-1.7,0.8s-0.9,0.6-1.4,0.8
		c-0.4,0.2-0.9,0.4-1.4,0.4c-0.4,0-0.8-0.1-1.1-0.3s-0.5-0.5-0.7-0.8l-1.1-2c3-2.7,6.5-4,10.7-4c1.5,0,2.8,0.2,4,0.7s2.2,1.2,3,2
		c0.8,0.9,1.4,1.9,1.9,3.1c0.4,1.2,0.6,2.5,0.6,4V220.9z M415.8,217c0.6,0,1.2-0.1,1.8-0.2c0.5-0.1,1-0.3,1.5-0.5s0.9-0.5,1.4-0.8
		c0.4-0.3,0.9-0.7,1.3-1.2V210c-1.8,0-3.3,0.1-4.5,0.3s-2.2,0.5-2.9,0.9s-1.3,0.8-1.6,1.2c-0.3,0.5-0.5,1-0.5,1.5
		c0,1.1,0.3,1.9,1,2.3C414,216.8,414.8,217,415.8,217z"/>
	<path class="st0" d="M433.9,220.9v-25.7h3.6c0.6,0,1.1,0.1,1.3,0.4s0.4,0.6,0.5,1.2l0.4,3.1c0.9-1.6,2-2.8,3.2-3.8
		c1.2-0.9,2.6-1.4,4.2-1.4c1.3,0,2.3,0.3,3.2,0.9l-0.8,4.6c0,0.3-0.2,0.5-0.3,0.6c-0.2,0.1-0.4,0.2-0.7,0.2c-0.2,0-0.6-0.1-1-0.2
		c-0.4-0.1-1-0.2-1.7-0.2c-1.3,0-2.4,0.4-3.3,1.1c-0.9,0.7-1.7,1.7-2.3,3.1v16L433.9,220.9L433.9,220.9z"/>
	<path class="st0" d="M472.4,200.6c-0.2,0.2-0.4,0.4-0.5,0.5c-0.2,0.1-0.4,0.2-0.8,0.2c-0.3,0-0.6-0.1-0.9-0.3s-0.7-0.4-1.1-0.6
		c-0.4-0.2-0.9-0.5-1.5-0.7s-1.3-0.3-2.1-0.3c-1.1,0-2,0.2-2.9,0.6s-1.5,1-2,1.7s-0.9,1.6-1.2,2.7c-0.3,1-0.4,2.2-0.4,3.5
		c0,1.4,0.1,2.6,0.4,3.7c0.3,1.1,0.7,2,1.3,2.7c0.6,0.7,1.2,1.3,2,1.6s1.7,0.6,2.7,0.6s1.8-0.1,2.4-0.4c0.6-0.2,1.1-0.5,1.5-0.8
		s0.8-0.6,1.1-0.8c0.3-0.2,0.7-0.4,1-0.4c0.5,0,0.9,0.2,1.1,0.6l1.8,2.2c-0.7,0.8-1.4,1.5-2.2,2c-0.8,0.5-1.6,1-2.5,1.3
		s-1.7,0.6-2.7,0.7c-0.9,0.1-1.8,0.2-2.7,0.2c-1.6,0-3.1-0.3-4.5-0.9c-1.4-0.6-2.6-1.5-3.7-2.6c-1-1.1-1.9-2.5-2.5-4.2
		s-0.9-3.5-0.9-5.6c0-1.9,0.3-3.6,0.8-5.2c0.5-1.6,1.3-3,2.4-4.2c1-1.2,2.3-2.1,3.9-2.8s3.3-1,5.4-1c1.9,0,3.6,0.3,5,0.9
		c1.4,0.6,2.7,1.5,3.9,2.7L472.4,200.6z"/>
	<path class="st0" d="M478.2,220.9v-37.2h6.2V198c1-1,2.1-1.7,3.3-2.3c1.2-0.6,2.6-0.9,4.2-0.9c1.4,0,2.6,0.2,3.7,0.7s2,1.1,2.7,2
		s1.3,1.9,1.7,3.1c0.4,1.2,0.6,2.5,0.6,3.9v16.3h-6.2v-16.3c0-1.6-0.4-2.8-1.1-3.6c-0.7-0.9-1.8-1.3-3.3-1.3c-1.1,0-2.1,0.2-3,0.7
		s-1.8,1.1-2.7,2v18.5h-6.1V220.9z"/>
</g>
<g>
	<polygon class="st0" points="314.4,0 317,4.9 321.9,7.5 317,10.2 314.4,15.1 311.7,10.2 306.8,7.5 311.7,4.9 	"/>
	<polygon class="st0" points="292.3,7.5 295.8,14 302.3,17.6 295.8,21.1 292.3,27.6 288.7,21.1 282.2,17.6 288.7,14 	"/>
	<polygon class="st0" points="351,32.3 354.9,39.4 362,43.3 354.9,47.2 351,54.3 347.1,47.2 340,43.3 347.1,39.4 	"/>
	<rect x="124.1" y="141.8" class="st0" width="251.4" height="14.6"/>
	<g>
		<path class="st0" d="M240.1,37.1c-36,10.8-62.9,51.9-62.9,100.8h28.3c0-28.5,5.4-55.3,15.3-75.5C226.4,51.1,232.9,42.5,240.1,37.1
			z"/>
		<path class="st0" d="M233.7,35.1c-48.9,10.9-85.4,52.8-85.4,102.8h24.9C173.2,89.6,198.7,48.7,233.7,35.1z"/>
		<path class="st0" d="M259,28.3V13.9c-71.2,0-129.1,55.6-129.1,124h14.4C144.3,77.5,195.8,28.3,259,28.3z"/>
		<path class="st0" d="M278,37.1c7.2,5.4,13.8,13.9,19.3,25.2c9.9,20.2,15.3,47,15.3,75.5h28.3C340.8,89,314,48,278,37.1z"/>
		<path class="st0" d="M259,34.3c-27.3,0-49.5,46.5-49.5,103.6h99C308.5,80.8,286.3,34.3,259,34.3z M281.2,83.4
			c7.3,15.3-4.7,29-4.7,29c5.4,1.1,3.1,7.1,3.1,7.1c-0.2-1.1-1.1-1.6-1.1-1.6c-2-1.4-6.2-0.5-6.2-0.5c-6.1,1.6-8.7,2-8.7,2
			c-13.3,1.7-20.8-6-20.8-6c-14-14.6-5.9-29.7-5.9-29.7c0,0.7,0.2,2.5,0.2,2.5c1-5,3.2-8.2,3.2-8.2c0.1,1,0.2,2.9,0.2,2.9
			c2.2-5.3,4.2-7,4.2-7c-0.1,0.5-0.1,3.3-0.1,3.3c2.4-4.6,4.5-6,4.5-6c0,0.8-0.5,3.2-0.5,3.2c3.7-4.6,7.2-5.1,7.2-5.1
			c-10,10.4-9.4,23.5-9.4,23.5c0.3,13.5,10.5,20.2,10.5,20.2l-1.4,0.9c0.8,0.3,4.9,1.2,4.9,1.2c-0.1,0.2-0.6,1.4-0.6,1.4
			c0.9,0.2,5,0.6,5,0.6c-0.1,0.3-0.3,1-0.3,1c0.7,0,7.6-1.7,7.6-1.7c5-1.1,7,0.6,7,0.6c0.4-3.5-3.6-3.8-3.6-3.8
			c0.3-0.5,0.1-0.9,0.1-0.9c-0.9-2.1-10.6-2.2-10.6-2.2c7.6-8.5,6.7-19.5,6.7-19.5c0.2-10.5-9.5-21.3-9.5-21.3c3.1,1,7,5,7,5
			c-0.3-1.4-0.5-3.2-0.5-3.2c1.6,1.2,4.6,5.7,4.6,5.7c-0.1-0.7-0.1-2.9-0.1-2.9c1.4,1.1,4.3,6.8,4.3,6.8c0-0.6,0.2-3,0.2-3
			c1.4,1.6,3.4,8.2,3.4,8.2C280.9,85.1,281.2,83.4,281.2,83.4z M272.3,112.4c0,0,2.6-0.2,2.1,0.7l-0.4,0.7
			C274,113.7,274.1,113.2,272.3,112.4z"/>
		<path class="st0" d="M284.3,35.1c35,13.6,60.5,54.5,60.5,102.8h24.9C369.7,87.9,333.3,46,284.3,35.1z"/>
	</g>
</g>
</svg>
